<svg width="170" height="60" viewBox="0 0 170 60" fill="none" xmlns="http://www.w3.org/2000/svg">
<mask id="mask0_358_3929" style="mask-type:luminance" maskUnits="userSpaceOnUse" x="3" y="3" width="44" height="54">
<path d="M3.96826 3.87593H46.3652V56.1575H3.96826V3.87593Z" fill="white"/>
</mask>
<g mask="url(#mask0_358_3929)">
<mask id="mask1_358_3929" style="mask-type:luminance" maskUnits="userSpaceOnUse" x="3" y="3" width="44" height="54">
<path d="M44.3068 46.8205C44.1363 46.7857 43.9638 46.769 43.7902 46.7696C43.6159 46.7708 43.444 46.7901 43.2741 46.8273C43.1041 46.8645 42.9398 46.9185 42.7816 46.9904C42.6228 47.0617 42.4733 47.1492 42.3331 47.2522C41.3723 47.9363 40.3607 48.5361 39.2994 49.0503C38.2375 49.5645 37.1402 49.9863 36.0076 50.3163C34.875 50.6457 33.7225 50.8789 32.5508 51.0141C31.3791 51.15 30.2043 51.1866 29.0264 51.1245L28.6909 51.1059C27.7238 51.0408 26.7661 50.9093 25.8171 50.7127C14.388 48.3451 7.04953 37.1578 9.41587 25.7318C11.7822 14.3051 22.962 6.95304 34.3819 9.32062C35.7663 9.60532 37.1086 10.0252 38.408 10.5804C39.7081 11.1355 40.94 11.8147 42.103 12.618H42.1129C42.2525 12.7489 42.4057 12.8605 42.5726 12.9536C42.7971 13.0733 43.0334 13.1595 43.2815 13.2128C43.4186 13.2401 43.5576 13.2556 43.6977 13.26C43.8379 13.2637 43.9769 13.2562 44.1158 13.237C44.2547 13.2178 44.3906 13.1874 44.5246 13.1452C44.6579 13.103 44.7869 13.0503 44.9116 12.9871C45.0369 12.9232 45.1554 12.8493 45.2676 12.7662C45.3805 12.6825 45.4847 12.5901 45.5821 12.489C45.6789 12.3879 45.767 12.2793 45.8457 12.1639C45.9245 12.048 45.9934 11.9264 46.0523 11.7992C46.1106 11.6715 46.1584 11.5406 46.195 11.4054C46.2315 11.2701 46.2564 11.1324 46.27 10.9929C46.2836 10.8533 46.2855 10.7138 46.2756 10.5742C46.2657 10.434 46.2446 10.2963 46.2117 10.1598C46.1788 10.0234 46.1348 9.89127 46.0796 9.76225C46.0244 9.63324 45.9592 9.5098 45.8836 9.39195C45.8079 9.2741 45.7229 9.16307 45.6286 9.05948C45.5344 8.9559 45.432 8.861 45.3222 8.77416H45.3123L45.1498 8.65941L45.1113 8.63025C43.6531 7.6037 42.1061 6.73656 40.4698 6.02759C38.8342 5.31862 37.1427 4.78394 35.3972 4.42232C21.2761 1.49836 7.45209 10.5767 4.52006 24.7158C1.58865 38.8549 10.6707 52.6777 24.8017 55.611C25.6751 55.7927 26.5559 55.9292 27.4441 56.021C28.3317 56.1121 29.2218 56.1574 30.1144 56.1574C31.007 56.1574 31.897 56.1115 32.7847 56.0197C33.6723 55.9279 34.5531 55.7915 35.427 55.6091C36.3004 55.4267 37.1625 55.2003 38.0129 54.9299C38.8639 54.6588 39.6982 54.345 40.5164 53.9889C41.3345 53.6323 42.1322 53.2347 42.91 52.7962C43.6872 52.3576 44.4402 51.8806 45.169 51.3646L45.2168 51.3354L45.3222 51.2492L45.37 51.2207C45.5939 51.0377 45.7812 50.8231 45.9326 50.5762C46.0833 50.33 46.19 50.0651 46.2514 49.7829C46.2843 49.6216 46.3016 49.4591 46.3023 49.2947C46.3035 49.1297 46.2886 48.9672 46.2576 48.8053C46.2266 48.6441 46.1801 48.4871 46.118 48.3345C46.0566 48.1826 45.9803 48.0374 45.8904 47.8997C45.7998 47.7626 45.6975 47.6355 45.5821 47.5183C45.4668 47.4004 45.3415 47.2956 45.2056 47.2032C45.0698 47.1107 44.9259 47.032 44.7745 46.9681C44.6238 46.9036 44.4675 46.8546 44.3068 46.8205Z" fill="white"/>
</mask>
<g mask="url(#mask1_358_3929)">
<path d="M5.67429 -4.54311L-6.44336 54.0075L44.5611 64.5764L56.6787 6.02572L5.67429 -4.54311Z" fill="url(#paint0_linear_358_3929)"/>
</g>
</g>
<mask id="mask2_358_3929" style="mask-type:luminance" maskUnits="userSpaceOnUse" x="17" y="13" width="29" height="33">
<path d="M17.4653 13.7241H45.8887V45.6408H17.4653V13.7241Z" fill="white"/>
</mask>
<g mask="url(#mask2_358_3929)">
<mask id="mask3_358_3929" style="mask-type:luminance" maskUnits="userSpaceOnUse" x="17" y="13" width="29" height="33">
<path d="M25.7385 44.9325C27.0461 45.2978 28.3784 45.4907 29.7356 45.5099C31.0927 45.5298 32.43 45.3753 33.7475 45.0472L34.3032 44.894H34.3126C34.6035 44.8103 34.8919 44.7185 35.1778 44.6186C35.4632 44.5181 35.746 44.4096 36.0251 44.2936C36.3049 44.177 36.5803 44.0523 36.8526 43.9202C37.1249 43.7881 37.3934 43.6479 37.6577 43.5003C37.9219 43.3526 38.1818 43.1969 38.4367 43.0344C38.6923 42.8719 38.9429 42.702 39.1885 42.5252C39.4341 42.3478 39.6742 42.1642 39.9093 41.9731C40.1444 41.7821 40.3739 41.5849 40.5972 41.3808C40.8211 41.1767 41.0388 40.9664 41.2503 40.75C41.4618 40.5335 41.6671 40.3108 41.8662 40.0825C42.0647 39.8543 42.257 39.6204 42.4425 39.381C42.6279 39.1416 42.8059 38.8966 42.9778 38.6472C43.149 38.3973 43.3127 38.143 43.4696 37.8843C43.6266 37.625 43.7754 37.3614 43.9175 37.0941C44.0589 36.8261 44.1929 36.5551 44.3188 36.2797C44.4447 36.0043 44.5632 35.7251 44.673 35.4429C44.7834 35.1613 44.8851 34.876 44.9788 34.5882C45.0724 34.2997 45.158 34.0095 45.2349 33.7167C45.3119 33.4239 45.3801 33.1287 45.4402 32.8322C45.5004 32.5351 45.5519 32.2367 45.5947 31.9371C45.6381 31.6369 45.6722 31.3361 45.6977 31.0346C45.7237 30.7326 45.7405 30.4305 45.7491 30.1278C45.7572 29.8251 45.7566 29.5224 45.7479 29.2197C45.7386 28.917 45.7212 28.6143 45.6946 28.3129C45.6685 28.0114 45.6332 27.7106 45.5897 27.411C45.5457 27.1108 45.4936 26.8131 45.4328 26.5159C45.372 26.2194 45.3032 25.9248 45.225 25.6321C45.1475 25.3393 45.0613 25.049 44.967 24.7612C44.8727 24.4734 44.7704 24.1887 44.6593 23.9065C44.5489 23.6248 44.4298 23.3463 44.3033 23.0716C44.1768 22.7962 44.0422 22.5251 43.8995 22.2578C43.7574 21.9904 43.608 21.7274 43.4504 21.4688C43.2929 21.2101 43.1285 20.9558 42.9561 20.7065C42.7842 20.4577 42.6056 20.2133 42.4195 19.9745C42.2334 19.7357 42.0405 19.5019 41.8414 19.2743C41.6417 19.046 41.4364 18.8246 41.2243 18.6081C41.0121 18.3922 40.7938 18.1826 40.5699 17.9791C40.3453 17.7751 40.1158 17.5784 39.8801 17.388C39.6444 17.1976 39.4038 17.0146 39.1581 16.8378C38.9119 16.6617 38.6613 16.4923 38.4051 16.3298C38.1496 16.1679 37.8897 16.0135 37.6248 15.8665C37.3606 15.7195 37.092 15.5799 36.8191 15.4484C36.5468 15.3163 36.2701 15.1929 35.991 15.0769C35.7113 14.9615 35.4284 14.8536 35.1425 14.7543C34.8565 14.6545 34.5681 14.5633 34.2766 14.4802C33.9857 14.3977 33.6923 14.3226 33.397 14.2569C33.1018 14.1905 32.8047 14.1334 32.5057 14.0844C32.2073 14.0354 31.9071 13.9945 31.6063 13.9629C31.3055 13.9312 31.0034 13.9083 30.7013 13.8934C30.3993 13.8791 30.0966 13.8735 29.7939 13.8766C29.4912 13.8791 29.1885 13.8909 28.887 13.9114C28.585 13.9318 28.2835 13.9604 27.9833 13.9982C27.6831 14.036 27.3841 14.0819 27.0864 14.1372C26.7886 14.1917 26.4928 14.255 26.1988 14.327C25.9048 14.3989 25.6126 14.4789 25.3236 14.5676C25.0339 14.6563 24.7473 14.7531 24.4632 14.8579C24.1792 14.9634 23.8988 15.0762 23.6215 15.1978C23.3443 15.3188 23.0701 15.4478 22.8003 15.5849C22.5305 15.722 22.2644 15.8665 22.0026 16.0184C21.7409 16.171 21.4841 16.3304 21.2316 16.4973C20.9792 16.6641 20.7317 16.8384 20.4892 17.0196C20.2466 17.2013 20.0091 17.3892 19.7777 17.584C19.5457 17.7788 19.3199 17.9804 19.0997 18.1882C18.8795 18.3959 18.6655 18.6099 18.4578 18.8301L18.0459 19.2904C17.9913 19.3592 17.9429 19.4324 17.902 19.5106C17.8226 19.6489 17.7562 19.7934 17.7023 19.9441C17.6489 20.0943 17.6092 20.2481 17.5832 20.4056C17.5565 20.5632 17.5447 20.722 17.5466 20.8814C17.5491 21.0408 17.5652 21.199 17.5956 21.3559C17.626 21.5128 17.6694 21.6654 17.7271 21.8143C17.7848 21.9631 17.8549 22.1058 17.938 22.2423C18.0211 22.3787 18.1154 22.5065 18.2214 22.6262C18.3275 22.7453 18.4429 22.8545 18.5682 22.9537C18.6935 23.0523 18.8262 23.1392 18.967 23.2142C19.1078 23.2899 19.2542 23.3519 19.4062 23.4003C19.5581 23.4493 19.7132 23.4847 19.8714 23.5058C20.0295 23.5275 20.1883 23.5343 20.3477 23.5275C20.5071 23.52 20.6647 23.4989 20.8204 23.4642C20.9754 23.4288 21.1268 23.3798 21.2738 23.3178C21.4208 23.2558 21.561 23.1807 21.695 23.0939C21.8283 23.0064 21.9536 22.9078 22.0696 22.7986L22.3183 22.5208C22.533 22.2919 22.7569 22.0735 22.9907 21.8651C23.2252 21.6567 23.4677 21.4589 23.7195 21.2722C23.9714 21.0861 24.2306 20.9105 24.498 20.7474C24.7653 20.5843 25.0395 20.4329 25.3205 20.2946C25.6014 20.1557 25.888 20.0297 26.1802 19.9169C26.4723 19.804 26.7688 19.7041 27.0702 19.6179C27.3711 19.5317 27.6756 19.4591 27.9833 19.3995C28.2909 19.3406 28.6005 19.296 28.9125 19.2643C29.2238 19.2333 29.5365 19.2159 29.8497 19.2128C30.1629 19.2097 30.4755 19.2209 30.7882 19.2457C31.1002 19.2705 31.4109 19.3096 31.7198 19.3623C32.0287 19.4157 32.3345 19.482 32.6372 19.5621C32.9399 19.6427 33.2382 19.7364 33.5329 19.8437C33.8275 19.9504 34.1165 20.0707 34.4 20.2034C34.6835 20.3368 34.9607 20.4825 35.2312 20.6401C35.5016 20.7983 35.7646 20.9682 36.0202 21.1493C36.2757 21.3311 36.522 21.524 36.7601 21.7274C36.9983 21.9315 37.2266 22.1455 37.4456 22.3694C37.6645 22.594 37.8729 22.8272 38.0708 23.0703C38.2687 23.3135 38.4554 23.5647 38.6309 23.8246C38.8064 24.0839 38.9696 24.3512 39.1209 24.6253C39.2723 24.9001 39.4112 25.1805 39.5377 25.4677C39.6636 25.7542 39.7772 26.0464 39.877 26.3435C39.9769 26.6406 40.0637 26.9414 40.1369 27.246C40.2095 27.5512 40.269 27.8582 40.3143 28.1683C40.3602 28.4785 40.3912 28.7905 40.4092 29.1031C40.4266 29.4163 40.4303 29.729 40.4198 30.0428C40.4092 30.3561 40.3844 30.668 40.3459 30.9788C40.3075 31.2902 40.2548 31.5991 40.189 31.9049C40.1226 32.2113 40.0426 32.5146 39.949 32.8136C39.8559 33.1125 39.7492 33.4072 39.6295 33.6968C39.5098 33.9865 39.3771 34.27 39.2319 34.5479C39.0868 34.8257 38.9292 35.0962 38.7599 35.3598C38.59 35.6234 38.4095 35.879 38.2165 36.1264C38.0243 36.3733 37.8214 36.6115 37.6074 36.841C37.3934 37.0699 37.1702 37.2888 36.9369 37.4979C36.7031 37.7069 36.4606 37.9054 36.2093 38.0921C35.9581 38.2794 35.6995 38.455 35.4321 38.6193C35.1654 38.7831 34.8913 38.935 34.6109 39.074C34.3305 39.2135 34.044 39.3401 33.7524 39.4536C33.4603 39.5677 33.1638 39.6682 32.863 39.755C32.5621 39.8419 32.2576 39.9157 31.9499 39.9752C31.6429 40.0348 31.3334 40.0807 31.0214 40.1129C30.71 40.1446 30.3974 40.1626 30.0842 40.1663C29.7709 40.1706 29.4583 40.1601 29.1457 40.1359C28.8337 40.1117 28.5229 40.0739 28.214 40.0218C27.9051 39.9697 27.5993 39.9039 27.296 39.8239C26.9933 39.7445 26.6944 39.6515 26.3997 39.5454C25.0922 39.0777 23.9267 38.3743 22.9026 37.4365C22.8933 37.4365 22.8933 37.4365 22.8933 37.4265L22.6731 37.2256C22.5528 37.122 22.4256 37.0289 22.2898 36.9471C22.1533 36.8671 22.0107 36.7994 21.8618 36.7442C21.7129 36.6897 21.561 36.6481 21.4047 36.6202C21.2484 36.5923 21.0914 36.5786 20.9326 36.5786C20.7745 36.5786 20.6169 36.5929 20.4612 36.6208C20.3049 36.6493 20.153 36.6909 20.0041 36.7461C19.8559 36.8013 19.7132 36.8695 19.5767 36.9502C19.4403 37.0308 19.3119 37.1226 19.1915 37.2262C19.0718 37.3298 18.9614 37.4427 18.8616 37.5661C18.7617 37.6889 18.673 37.8198 18.5967 37.9587C18.5198 38.0977 18.4559 38.2416 18.405 38.3923C18.3542 38.5424 18.3163 38.6956 18.2928 38.8525C18.2692 39.0095 18.2593 39.167 18.2636 39.3252C18.268 39.484 18.2859 39.6409 18.3182 39.796C18.3505 39.9517 18.3964 40.103 18.4553 40.25C18.5142 40.397 18.5862 40.5378 18.6699 40.6724C18.7542 40.807 18.8491 40.9329 18.9558 41.0502C19.0464 41.1612 19.1487 41.2604 19.2623 41.3473H19.2722C20.192 42.1933 21.1987 42.9197 22.2917 43.5257C23.3852 44.1317 24.534 44.6006 25.7385 44.9325Z" fill="white"/>
</mask>
<g mask="url(#mask3_358_3929)">
<path d="M58.81 20.7592L23.6814 2.22729L4.49268 38.6441L39.6212 57.176L58.81 20.7592Z" fill="url(#paint1_linear_358_3929)"/>
</g>
</g>
<mask id="mask4_358_3929" style="mask-type:luminance" maskUnits="userSpaceOnUse" x="14" y="24" width="21" height="11">
<path d="M14.1313 24.9981H34.774V34.3667H14.1313V24.9981Z" fill="white"/>
</mask>
<g mask="url(#mask4_358_3929)">
<mask id="mask5_358_3929" style="mask-type:luminance" maskUnits="userSpaceOnUse" x="14" y="25" width="21" height="10">
<path d="M34.6787 29.0486C34.6439 28.7881 34.5875 28.5325 34.5093 28.2819C34.4312 28.0313 34.3326 27.7888 34.2135 27.5543C34.0944 27.3205 33.9567 27.0978 33.7998 26.8869C33.6434 26.676 33.4704 26.4794 33.2806 26.2983C33.0908 26.1165 32.8873 25.9522 32.6696 25.8045C32.4525 25.6575 32.2243 25.5298 31.9848 25.4206C31.746 25.3121 31.4998 25.2246 31.2455 25.157C30.9918 25.09 30.7344 25.0447 30.4726 25.0211C30.2109 24.9982 29.9497 24.9963 29.688 25.0174C29.4262 25.0379 29.1676 25.0801 28.9132 25.1446C28.6583 25.2091 28.4114 25.2941 28.1708 25.4001C27.9307 25.5062 27.7012 25.6321 27.4823 25.7766C27.2633 25.9218 27.058 26.0837 26.8663 26.2635C26.6747 26.4428 26.4991 26.6376 26.3404 26.8466C26.1816 27.0556 26.0414 27.2765 25.9198 27.5097C25.7982 27.7423 25.6971 27.9842 25.6159 28.2335C24.6966 28.7515 23.4319 29.0678 22.0233 29.0678C20.8162 29.0678 19.7053 28.8284 18.8332 28.4351C18.6118 28.0543 18.3084 27.7572 17.9233 27.5438C17.7334 27.4328 17.5325 27.3496 17.3197 27.2944C17.1932 27.2659 17.0654 27.2467 16.9364 27.2368C16.7609 27.22 16.5847 27.2219 16.4092 27.2423C16.2336 27.2634 16.0624 27.3025 15.8956 27.3608C15.7287 27.4185 15.5699 27.4936 15.4186 27.586C15.2679 27.6784 15.1289 27.7857 15.0011 27.9079H14.9918L14.8095 28.1095C14.7127 28.2174 14.6296 28.3359 14.5608 28.4637C14.4801 28.6051 14.4144 28.7527 14.3635 28.9072C14.312 29.0616 14.2767 29.2191 14.2562 29.3804C14.2364 29.5417 14.232 29.7036 14.2438 29.8655C14.2556 30.028 14.2829 30.1874 14.3263 30.3437C14.3691 30.5006 14.4274 30.6514 14.5 30.7965C14.5732 30.9416 14.6594 31.0787 14.7592 31.2071C14.8591 31.3349 14.9708 31.4521 15.0936 31.5588C15.2164 31.6649 15.3485 31.7579 15.4899 31.8379C15.7095 31.9626 15.9427 32.0513 16.1896 32.1034C16.4365 32.1561 16.6852 32.1698 16.9364 32.145C17.066 32.132 17.1938 32.1096 17.3197 32.078C17.7186 31.9775 18.0696 31.7889 18.3736 31.5123L18.6515 31.2152C18.6515 31.2084 18.6546 31.2053 18.6608 31.2053L18.8332 30.9466C19.7053 30.5441 20.8162 30.3046 22.0233 30.3046C23.4319 30.3046 24.6966 30.621 25.6159 31.1482C25.6624 31.284 25.7145 31.4174 25.7728 31.5483C25.8311 31.6798 25.8956 31.8075 25.9657 31.9328C26.0358 32.0581 26.1121 32.1797 26.1934 32.2982C26.2746 32.4167 26.3614 32.5308 26.4532 32.6406C26.545 32.751 26.6418 32.857 26.7435 32.9582C26.8453 33.0593 26.9513 33.156 27.0617 33.2478C27.1721 33.339 27.2869 33.4252 27.4054 33.5065C27.5238 33.5871 27.6454 33.6628 27.7707 33.7323C27.8966 33.8023 28.0244 33.8662 28.1559 33.9239C28.2874 33.9822 28.4208 34.0337 28.5566 34.0796C28.6931 34.1249 28.8308 34.1646 28.9703 34.1975C29.1099 34.2303 29.2507 34.257 29.3927 34.2769C29.5348 34.2967 29.678 34.3103 29.8213 34.3172C29.9646 34.324 30.1079 34.324 30.2512 34.3178C30.3945 34.311 30.5371 34.2979 30.6792 34.2787C30.8212 34.2589 30.9626 34.2328 31.1022 34.2006C31.2418 34.1683 31.3801 34.1292 31.5159 34.0839C31.6524 34.0387 31.7857 33.9872 31.9172 33.9295C32.0487 33.8724 32.1771 33.8085 32.303 33.7391C32.4283 33.6702 32.5505 33.5952 32.6696 33.5145C32.7881 33.4339 32.9028 33.3477 33.0139 33.2565C33.1243 33.1653 33.231 33.0692 33.3327 32.9681C33.4344 32.867 33.5318 32.7615 33.6242 32.6517C33.716 32.542 33.8035 32.4278 33.8847 32.31C33.9666 32.1921 34.0429 32.0705 34.1136 31.9452C34.1843 31.8206 34.2488 31.6922 34.3078 31.5613C34.3661 31.4304 34.4188 31.2971 34.4653 31.1612C34.5118 31.0254 34.5521 30.8877 34.5863 30.7481C34.6198 30.6086 34.6477 30.4684 34.6681 30.3263C34.6892 30.1843 34.7035 30.0416 34.7116 29.8977C34.719 29.7544 34.7202 29.6112 34.7147 29.4679C34.7097 29.3246 34.6973 29.1813 34.6787 29.0393V29.0486Z" fill="white"/>
</mask>
<g mask="url(#mask5_358_3929)">
<path d="M15.0741 20.9254L12.3809 33.9406L33.8777 38.3948L36.5709 25.3802L15.0741 20.9254Z" fill="url(#paint2_linear_358_3929)"/>
</g>
</g>
<path d="M72.4717 34.4883V23.9643H74.7223V34.4883H72.4717Z" fill="#7ED957"/>
<path d="M80.2497 32.3656H84.2202V34.4883H77.999V23.9643H80.2497V32.3656Z" fill="#7ED957"/>
<path d="M95.285 34.4884H92.543L88.8869 29.346V34.4884H86.6362V23.9644H88.8869V28.8178L92.2776 23.9644H94.9017L91.3636 29.0071L95.285 34.4884Z" fill="#7ED957"/>
<path d="M99.5085 32.3656H103.646V34.4884H97.2578V23.9644H103.479V26.0772H99.5085V28.1501H103.096V30.203H99.5085V32.3656Z" fill="#7ED957"/>
<path d="M113.022 23.9644H115.213V34.4884H113.346L108.648 27.9208V34.4884H106.447V23.9644H108.471L113.022 30.3824V23.9644Z" fill="#7ED957"/>
<path d="M147.618 34.4883L146.891 32.4852H142.753L142.045 34.4883H139.677L143.736 23.9643H145.849L150.045 34.4883H147.618ZM144.817 26.7448L143.47 30.502H146.183L144.817 26.7448Z" fill="#7ED957"/>
<path d="M158.844 23.9644H161.291L157.38 34.4884H155.257L151.198 23.9644H153.674L156.299 31.4089L158.844 23.9644Z" fill="#7ED957"/>
<path d="M165.827 32.3656H169.964V34.4883H163.576V23.9643H169.797V26.0771H165.827V28.15H169.414V30.203H165.827V32.3656Z" fill="#7ED957"/>
<path d="M57.4182 44.2811C57.0496 44.2811 56.7253 44.2139 56.4452 44.0818C56.1626 43.9423 55.9391 43.748 55.7769 43.4938C55.6196 43.2422 55.541 42.9407 55.541 42.5869H56.6025C56.6025 42.8261 56.6835 43.003 56.8482 43.1151C57.0103 43.2297 57.202 43.2845 57.4182 43.2845C57.5484 43.2845 57.6737 43.2646 57.7917 43.2247C57.9096 43.1799 58.003 43.1126 58.0767 43.0254C58.1553 42.9407 58.1946 42.8336 58.1946 42.7065C58.1946 42.5819 58.1504 42.4823 58.0669 42.4075C57.9809 42.3353 57.8629 42.2755 57.713 42.2282C57.5607 42.1833 57.401 42.1385 57.2315 42.0986C57.0472 42.0587 56.8604 42.0089 56.6713 41.9491C56.4796 41.8843 56.3027 41.7996 56.1405 41.7C55.9833 41.6003 55.8555 41.4658 55.7572 41.2914C55.659 41.1194 55.6098 40.9027 55.6098 40.6436C55.6098 40.1727 55.7671 39.8114 56.0816 39.5573C56.401 39.2982 56.831 39.1686 57.3691 39.1686C57.9243 39.1686 58.3543 39.3131 58.6565 39.5972C58.9637 39.8762 59.1185 40.2599 59.1185 40.7432H58.0767C58.0767 40.5389 58.0005 40.3845 57.8506 40.2848C57.7057 40.1802 57.5386 40.1254 57.3494 40.1254C57.1725 40.1254 57.0103 40.1652 56.8678 40.2449C56.7302 40.3197 56.6614 40.4343 56.6614 40.5937C56.6614 40.7133 56.7032 40.808 56.7892 40.8728C56.8727 40.9401 56.9858 40.9974 57.1233 41.0422C57.2659 41.0821 57.4231 41.1269 57.5951 41.1718C57.7769 41.2191 57.9637 41.2764 58.1553 41.3412C58.3519 41.401 58.5312 41.4857 58.6959 41.5903C58.8654 41.6975 59.003 41.8395 59.1086 42.0189C59.2118 42.1983 59.2659 42.425 59.2659 42.6966C59.2659 43.0553 59.1799 43.3518 59.0104 43.5835C58.8457 43.8177 58.6221 43.9921 58.342 44.1117C58.0669 44.2238 57.7573 44.2811 57.4182 44.2811Z" fill="#29ABE2"/>
<path d="M64.7704 43.1848H66.7066V44.1814H63.709V39.2582H66.6279V40.2448H64.7704V41.2115H66.451V42.1782H64.7704V43.1848Z" fill="#29ABE2"/>
<path d="M77.1536 44.1814H76.0823L75.6106 40.9624L74.156 44.1714H73.9005L72.4557 40.9624L71.9742 44.1814H70.8931L71.6597 39.2583H72.7113L74.0282 42.2779L75.3452 39.2583H76.3968L77.1536 44.1814Z" fill="#29ABE2"/>
<path d="M81.5713 44.1814V39.2582H82.6327V44.1814H81.5713Z" fill="#29ABE2"/>
<path d="M89.5755 44.291C89.2217 44.291 88.89 44.2263 88.5829 44.1017C88.2807 43.9696 88.0153 43.7878 87.7868 43.5536C87.5558 43.3219 87.3789 43.0503 87.2561 42.7364C87.1308 42.4249 87.0693 42.0886 87.0693 41.7298C87.0693 41.366 87.1308 41.0272 87.2561 40.7133C87.3789 40.3944 87.5558 40.1203 87.7868 39.8861C88.0153 39.6544 88.2807 39.475 88.5829 39.348C88.89 39.2159 89.2217 39.1486 89.5755 39.1486C89.9686 39.1486 90.3274 39.2333 90.6566 39.3978C90.9834 39.5647 91.2586 39.7964 91.4822 40.0954C91.7033 40.3894 91.8507 40.7282 91.9244 41.1119H90.8728C90.7746 40.8204 90.6099 40.5912 90.3814 40.4243C90.1505 40.2524 89.8826 40.1652 89.5755 40.1652C89.3003 40.1652 89.0546 40.2349 88.8384 40.3744C88.6222 40.514 88.4477 40.7008 88.3175 40.9325C88.1922 41.1667 88.1308 41.4308 88.1308 41.7298C88.1308 42.0238 88.1922 42.2854 88.3175 42.5171C88.4477 42.7513 88.6222 42.9357 88.8384 43.0752C89.0546 43.2097 89.3003 43.2745 89.5755 43.2745C89.8949 43.2745 90.1701 43.1848 90.4011 43.0054C90.6296 42.8211 90.7893 42.5719 90.8827 42.258H91.9441C91.8704 42.6641 91.723 43.0204 91.5018 43.3243C91.2782 43.6308 91.0031 43.87 90.6763 44.0419C90.347 44.2063 89.9809 44.291 89.5755 44.291Z" fill="#29ABE2"/>
<path d="M98.6121 44.291C98.2387 44.291 97.8947 44.2263 97.5802 44.1017C97.2657 43.9696 96.9905 43.7878 96.7546 43.5536C96.5237 43.3219 96.3443 43.0503 96.2141 42.7364C96.0888 42.4249 96.0273 42.0861 96.0273 41.7198C96.0273 41.3561 96.0888 41.0172 96.2141 40.7033C96.3443 40.3919 96.5237 40.1203 96.7546 39.8861C96.9905 39.6544 97.2657 39.475 97.5802 39.348C97.8947 39.2159 98.2387 39.1486 98.6121 39.1486C98.9782 39.1486 99.3198 39.2159 99.6343 39.348C99.9488 39.475 100.219 39.6544 100.45 39.8861C100.686 40.1203 100.865 40.3919 100.991 40.7033C101.121 41.0172 101.187 41.3561 101.187 41.7198C101.187 42.0861 101.121 42.4249 100.991 42.7364C100.865 43.0503 100.686 43.3219 100.45 43.5536C100.219 43.7878 99.9488 43.9696 99.6343 44.1017C99.3198 44.2263 98.9782 44.291 98.6121 44.291ZM98.6121 43.2845C98.8996 43.2845 99.1576 43.2197 99.3886 43.0852C99.6171 42.9456 99.7964 42.7613 99.9291 42.5271C100.059 42.2879 100.126 42.0188 100.126 41.7198C100.126 41.4209 100.059 41.1568 99.9291 40.9226C99.7964 40.6834 99.6171 40.499 99.3886 40.3645C99.1576 40.225 98.8996 40.1552 98.6121 40.1552C98.3222 40.1552 98.0618 40.225 97.8259 40.3645C97.5949 40.499 97.4156 40.6834 97.2853 40.9226C97.1527 41.1568 97.0888 41.4209 97.0888 41.7198C97.0888 42.0138 97.1527 42.2779 97.2853 42.5171C97.4156 42.7563 97.5949 42.9456 97.8259 43.0852C98.0618 43.2197 98.3222 43.2845 98.6121 43.2845Z" fill="#29ABE2"/>
<path d="M108.705 39.2583H109.727V44.1814H108.852L106.66 41.1019V44.1814H105.619V39.2583H106.572L108.705 42.258V39.2583Z" fill="#29ABE2"/>
<path d="M116.295 39.2583C116.649 39.2583 116.976 39.3231 117.278 39.4477C117.578 39.5672 117.838 39.7367 118.054 39.9559C118.275 40.1752 118.447 40.4343 118.565 40.7333C118.688 41.0322 118.752 41.3586 118.752 41.7099C118.752 42.0687 118.688 42.3976 118.565 42.6965C118.447 42.9955 118.275 43.2596 118.054 43.4838C117.838 43.7031 117.578 43.8775 117.278 44.0021C116.976 44.1217 116.649 44.1815 116.295 44.1815H114.447V39.2583H116.295ZM116.265 43.1849C116.541 43.1849 116.781 43.1226 116.993 42.9955C117.209 42.8709 117.376 42.6965 117.494 42.4773C117.617 42.2531 117.681 41.9964 117.681 41.7099C117.681 41.4259 117.617 41.1718 117.494 40.9525C117.376 40.7333 117.209 40.5613 116.993 40.4343C116.781 40.3097 116.541 40.2449 116.265 40.2449H115.509V43.1849H116.265Z" fill="#29ABE2"/>
<path d="M125.163 44.2911C124.775 44.2911 124.431 44.2064 124.131 44.0419C123.829 43.87 123.591 43.6383 123.414 43.3443C123.242 43.0528 123.158 42.714 123.158 42.3278V39.2583H124.21V42.278C124.21 42.5844 124.298 42.8311 124.475 43.0154C124.652 43.1948 124.881 43.2845 125.163 43.2845C125.443 43.2845 125.674 43.1948 125.851 43.0154C126.028 42.8311 126.116 42.5844 126.116 42.278V39.2583H127.168V42.3278C127.168 42.714 127.08 43.0528 126.903 43.3443C126.731 43.6383 126.492 43.87 126.185 44.0419C125.883 44.2064 125.542 44.2911 125.163 44.2911Z" fill="#29ABE2"/>
<path d="M134.059 44.291C133.705 44.291 133.373 44.2262 133.066 44.1017C132.764 43.9696 132.499 43.7877 132.27 43.5535C132.039 43.3218 131.862 43.0503 131.739 42.7363C131.614 42.4249 131.553 42.0885 131.553 41.7298C131.553 41.366 131.614 41.0272 131.739 40.7133C131.862 40.3943 132.039 40.1203 132.27 39.8861C132.499 39.6544 132.764 39.475 133.066 39.3479C133.373 39.2159 133.705 39.1486 134.059 39.1486C134.452 39.1486 134.811 39.2333 135.14 39.3978C135.467 39.5647 135.742 39.7964 135.966 40.0954C136.187 40.3894 136.334 40.7282 136.408 41.1119H135.356C135.258 40.8204 135.093 40.5912 134.865 40.4242C134.634 40.2523 134.366 40.1651 134.059 40.1651C133.784 40.1651 133.538 40.2349 133.322 40.3744C133.106 40.5139 132.931 40.7008 132.801 40.9325C132.676 41.1667 132.614 41.4308 132.614 41.7298C132.614 42.0238 132.676 42.2854 132.801 42.5171C132.931 42.7513 133.106 42.9356 133.322 43.0752C133.538 43.2097 133.784 43.2745 134.059 43.2745C134.378 43.2745 134.654 43.1848 134.884 43.0054C135.113 42.821 135.273 42.5719 135.366 42.258H136.428C136.354 42.6641 136.206 43.0204 135.985 43.3243C135.762 43.6308 135.486 43.8699 135.16 44.0419C134.83 44.2063 134.464 44.291 134.059 44.291Z" fill="#29ABE2"/>
<path d="M144.141 39.2583V40.2449H142.794V44.1814H141.733V40.2449H140.396V39.2583H144.141Z" fill="#29ABE2"/>
<path d="M150.756 44.291C150.383 44.291 150.039 44.2262 149.724 44.1017C149.41 43.9696 149.135 43.7877 148.899 43.5535C148.668 43.3218 148.488 43.0503 148.358 42.7363C148.233 42.4249 148.171 42.0861 148.171 41.7198C148.171 41.356 148.233 41.0172 148.358 40.7033C148.488 40.3919 148.668 40.1203 148.899 39.8861C149.135 39.6544 149.41 39.475 149.724 39.3479C150.039 39.2159 150.383 39.1486 150.756 39.1486C151.122 39.1486 151.464 39.2159 151.778 39.3479C152.093 39.475 152.363 39.6544 152.594 39.8861C152.83 40.1203 153.009 40.3919 153.135 40.7033C153.265 41.0172 153.331 41.356 153.331 41.7198C153.331 42.0861 153.265 42.4249 153.135 42.7363C153.009 43.0503 152.83 43.3218 152.594 43.5535C152.363 43.7877 152.093 43.9696 151.778 44.1017C151.464 44.2262 151.122 44.291 150.756 44.291ZM150.756 43.2844C151.044 43.2844 151.302 43.2197 151.533 43.0851C151.761 42.9456 151.94 42.7612 152.073 42.527C152.203 42.2879 152.27 42.0188 152.27 41.7198C152.27 41.4208 152.203 41.1567 152.073 40.9225C151.94 40.6834 151.761 40.499 151.533 40.3644C151.302 40.2249 151.044 40.1552 150.756 40.1552C150.466 40.1552 150.206 40.2249 149.97 40.3644C149.739 40.499 149.56 40.6834 149.429 40.9225C149.297 41.1567 149.233 41.4208 149.233 41.7198C149.233 42.0138 149.297 42.2779 149.429 42.5171C149.56 42.7563 149.739 42.9456 149.97 43.0851C150.206 43.2197 150.466 43.2844 150.756 43.2844Z" fill="#29ABE2"/>
<path d="M160.438 44.1814L159.495 42.4972H158.827V44.1814H157.765V39.2583H159.731C160.058 39.2583 160.345 39.328 160.596 39.4676C160.851 39.6071 161.053 39.8014 161.205 40.0456C161.355 40.2922 161.431 40.5738 161.431 40.8927C161.431 41.2116 161.348 41.4981 161.185 41.7497C161.028 41.9964 160.814 42.1858 160.547 42.3178L161.618 44.1814H160.438ZM158.827 40.2449V41.5106H159.662C159.878 41.5106 160.048 41.4508 160.173 41.3312C160.303 41.2116 160.37 41.0621 160.37 40.8827C160.37 40.6983 160.303 40.5439 160.173 40.4243C160.048 40.3047 159.878 40.2449 159.662 40.2449H158.827Z" fill="#29ABE2"/>
<path d="M167.573 44.2811C167.205 44.2811 166.881 44.2139 166.6 44.0818C166.318 43.9423 166.094 43.748 165.932 43.4938C165.775 43.2422 165.696 42.9407 165.696 42.5869H166.758C166.758 42.8261 166.839 43.003 167.003 43.1151C167.166 43.2297 167.357 43.2845 167.573 43.2845C167.704 43.2845 167.829 43.2646 167.947 43.2247C168.065 43.1799 168.158 43.1126 168.232 43.0254C168.311 42.9407 168.35 42.8336 168.35 42.7065C168.35 42.5819 168.306 42.4823 168.222 42.4075C168.136 42.3353 168.018 42.2755 167.868 42.2282C167.716 42.1833 167.556 42.1385 167.387 42.0986C167.202 42.0587 167.016 42.0089 166.827 41.9491C166.635 41.8843 166.458 41.7996 166.296 41.7C166.139 41.6003 166.011 41.4658 165.913 41.2914C165.814 41.1194 165.765 40.9027 165.765 40.6436C165.765 40.1727 165.922 39.8114 166.237 39.5573C166.556 39.2982 166.986 39.1686 167.524 39.1686C168.08 39.1686 168.51 39.3131 168.812 39.5972C169.119 39.8762 169.274 40.2599 169.274 40.7432H168.232C168.232 40.5389 168.156 40.3845 168.006 40.2848C167.861 40.1802 167.694 40.1254 167.505 40.1254C167.328 40.1254 167.166 40.1652 167.023 40.2449C166.885 40.3197 166.817 40.4343 166.817 40.5937C166.817 40.7133 166.858 40.808 166.944 40.8728C167.028 40.9401 167.141 40.9974 167.279 41.0422C167.421 41.0821 167.578 41.1269 167.75 41.1718C167.932 41.2191 168.119 41.2764 168.311 41.3412C168.507 41.401 168.687 41.4857 168.851 41.5903C169.021 41.6975 169.158 41.8395 169.264 42.0189C169.367 42.1983 169.421 42.425 169.421 42.6966C169.421 43.0553 169.335 43.3518 169.166 43.5835C169.001 43.8177 168.777 43.9921 168.497 44.1117C168.222 44.2238 167.913 44.2811 167.573 44.2811Z" fill="#29ABE2"/>
<path d="M60.886 35.3218C59.5298 35.3218 58.2668 35.0752 57.1022 34.5844C55.9351 34.0935 54.9203 33.4059 54.0555 32.5214C53.1906 31.632 52.5174 30.593 52.0407 29.4021C51.5616 28.2062 51.3232 26.9206 51.3232 25.5453C51.3232 24.1451 51.5616 22.8445 52.0407 21.6486C52.5174 20.4477 53.1906 19.4038 54.0555 18.5193C54.9203 17.6299 55.9351 16.9397 57.1022 16.4464C58.2668 15.9556 59.5298 15.709 60.886 15.709C62.3922 15.709 63.7706 16.0229 65.0237 16.6457C66.2817 17.2711 67.3333 18.1481 68.1785 19.2767C69.0287 20.4079 69.5963 21.7159 69.8788 23.2033H65.8493C65.4758 22.0946 64.8468 21.2151 63.9623 20.5623C63.0826 19.9046 62.0581 19.5757 60.886 19.5757C59.8443 19.5757 58.9057 19.8423 58.0752 20.373C57.2496 20.8987 56.5936 21.6088 56.1096 22.5057C55.6231 23.4026 55.3823 24.4167 55.3823 25.5453C55.3823 26.6764 55.6231 27.6855 56.1096 28.5749C56.5936 29.4594 57.2496 30.1595 58.0752 30.6777C58.9057 31.1959 59.8443 31.4551 60.886 31.4551C62.1096 31.4551 63.1613 31.1063 64.0409 30.4086C64.9254 29.711 65.5372 28.7618 65.8787 27.5584H69.928C69.6454 29.1206 69.0852 30.4834 68.2473 31.6444C67.407 32.8079 66.3554 33.7123 65.0925 34.3551C63.8271 34.9979 62.4242 35.3218 60.886 35.3218Z" fill="#7ED957"/>
<path d="M130.217 35.3218C128.861 35.3218 127.598 35.0752 126.433 34.5844C125.266 34.0935 124.251 33.4059 123.387 32.5214C122.522 31.632 121.848 30.593 121.372 29.4021C120.893 28.2062 120.654 26.9206 120.654 25.5453C120.654 24.1451 120.893 22.8445 121.372 21.6486C121.848 20.4477 122.522 19.4038 123.387 18.5193C124.251 17.6299 125.266 16.9397 126.433 16.4464C127.598 15.9556 128.861 15.709 130.217 15.709C131.723 15.709 133.102 16.0229 134.355 16.6457C135.613 17.2711 136.664 18.1481 137.51 19.2767C138.36 20.4079 138.927 21.7159 139.21 23.2033H135.18C134.807 22.0946 134.178 21.2151 133.293 20.5623C132.414 19.9046 131.389 19.5757 130.217 19.5757C129.175 19.5757 128.237 19.8423 127.406 20.373C126.581 20.8987 125.925 21.6088 125.441 22.5057C124.954 23.4026 124.713 24.4167 124.713 25.5453C124.713 26.6764 124.954 27.6855 125.441 28.5749C125.925 29.4594 126.581 30.1595 127.406 30.6777C128.237 31.1959 129.175 31.4551 130.217 31.4551C131.441 31.4551 132.492 31.1063 133.372 30.4086C134.256 29.711 134.868 28.7618 135.21 27.5584H139.259C138.976 29.1206 138.416 30.4834 137.578 31.6444C136.738 32.8079 135.686 33.7123 134.424 34.3551C133.158 34.9979 131.755 35.3218 130.217 35.3218Z" fill="#7ED957"/>
<defs>
<linearGradient id="paint0_linear_358_3929" x1="15.2297" y1="-7.70508" x2="39.6832" y2="66.1904" gradientUnits="userSpaceOnUse">
<stop stop-color="#0091D4"/>
<stop offset="0.125" stop-color="#0091D4"/>
<stop offset="0.1875" stop-color="#0091D4"/>
<stop offset="0.203125" stop-color="#0092D4"/>
<stop offset="0.21875" stop-color="#0092D4"/>
<stop offset="0.234375" stop-color="#0093D4"/>
<stop offset="0.25" stop-color="#0094D3"/>
<stop offset="0.265625" stop-color="#0094D3"/>
<stop offset="0.28125" stop-color="#0095D3"/>
<stop offset="0.296875" stop-color="#0096D3"/>
<stop offset="0.3125" stop-color="#0096D3"/>
<stop offset="0.328125" stop-color="#0097D3"/>
<stop offset="0.334773" stop-color="#0098D3"/>
<stop offset="0.34375" stop-color="#0098D2"/>
<stop offset="0.359375" stop-color="#0099D2"/>
<stop offset="0.375" stop-color="#0099D2"/>
<stop offset="0.390625" stop-color="#009AD2"/>
<stop offset="0.398437" stop-color="#009BD2"/>
<stop offset="0.40625" stop-color="#009BD2"/>
<stop offset="0.414062" stop-color="#009CD2"/>
<stop offset="0.421875" stop-color="#009CD2"/>
<stop offset="0.429688" stop-color="#009DD1"/>
<stop offset="0.4375" stop-color="#009ED1"/>
<stop offset="0.445312" stop-color="#009ED1"/>
<stop offset="0.453125" stop-color="#009FD1"/>
<stop offset="0.460938" stop-color="#009FD1"/>
<stop offset="0.46875" stop-color="#00A0D1"/>
<stop offset="0.476562" stop-color="#00A1D1"/>
<stop offset="0.484375" stop-color="#00A1D0"/>
<stop offset="0.492187" stop-color="#00A2D0"/>
<stop offset="0.5" stop-color="#00A2D0"/>
<stop offset="0.507812" stop-color="#00A3D0"/>
<stop offset="0.515625" stop-color="#00A4D0"/>
<stop offset="0.523438" stop-color="#00A4D0"/>
<stop offset="0.53125" stop-color="#00A5D0"/>
<stop offset="0.539062" stop-color="#00A5CF"/>
<stop offset="0.546875" stop-color="#00A6CF"/>
<stop offset="0.554688" stop-color="#00A7CF"/>
<stop offset="0.5625" stop-color="#00A7CF"/>
<stop offset="0.570312" stop-color="#00A8CF"/>
<stop offset="0.578125" stop-color="#00A8CF"/>
<stop offset="0.585938" stop-color="#00A9CF"/>
<stop offset="0.59375" stop-color="#00AACE"/>
<stop offset="0.601562" stop-color="#00AACE"/>
<stop offset="0.609375" stop-color="#00ABCE"/>
<stop offset="0.617187" stop-color="#00ABCE"/>
<stop offset="0.625" stop-color="#00ACCE"/>
<stop offset="0.632812" stop-color="#00ACCE"/>
<stop offset="0.640625" stop-color="#00ADCE"/>
<stop offset="0.648438" stop-color="#00AECD"/>
<stop offset="0.65625" stop-color="#00AECD"/>
<stop offset="0.664062" stop-color="#00AFCD"/>
<stop offset="0.665227" stop-color="#00AFCD"/>
<stop offset="0.671875" stop-color="#00B0CD"/>
<stop offset="0.679688" stop-color="#00B0CD"/>
<stop offset="0.6875" stop-color="#00B1CD"/>
<stop offset="0.695312" stop-color="#00B1CD"/>
<stop offset="0.703125" stop-color="#00B2CD"/>
<stop offset="0.710937" stop-color="#00B2CC"/>
<stop offset="0.71875" stop-color="#00B3CC"/>
<stop offset="0.726562" stop-color="#00B4CC"/>
<stop offset="0.734375" stop-color="#00B4CC"/>
<stop offset="0.742188" stop-color="#00B5CC"/>
<stop offset="0.75" stop-color="#00B6CC"/>
<stop offset="0.757812" stop-color="#00B6CB"/>
<stop offset="0.765625" stop-color="#00B7CB"/>
<stop offset="0.773438" stop-color="#00B8CB"/>
<stop offset="0.78125" stop-color="#00B8CB"/>
<stop offset="0.789062" stop-color="#00B9CB"/>
<stop offset="0.796875" stop-color="#00BACA"/>
<stop offset="0.804688" stop-color="#00BACA"/>
<stop offset="0.8125" stop-color="#00BBCA"/>
<stop offset="0.820312" stop-color="#00BCCA"/>
<stop offset="0.828125" stop-color="#00BCCA"/>
<stop offset="0.835937" stop-color="#00BDCA"/>
<stop offset="0.84375" stop-color="#00BEC9"/>
<stop offset="0.851562" stop-color="#00BEC9"/>
<stop offset="0.859375" stop-color="#00BFC9"/>
<stop offset="0.875" stop-color="#00BFC9"/>
<stop offset="1" stop-color="#00BFC9"/>
</linearGradient>
<linearGradient id="paint1_linear_358_3929" x1="49.1302" y1="40.7861" x2="13.3533" y2="20.0287" gradientUnits="userSpaceOnUse">
<stop stop-color="#00B6F3"/>
<stop offset="0.0405677" stop-color="#00B6F3"/>
<stop offset="0.125" stop-color="#00B6F3"/>
<stop offset="0.15625" stop-color="#00B6F3"/>
<stop offset="0.171875" stop-color="#00B6F3"/>
<stop offset="0.1875" stop-color="#00B6F2"/>
<stop offset="0.203125" stop-color="#00B6F1"/>
<stop offset="0.21875" stop-color="#00B6F1"/>
<stop offset="0.234375" stop-color="#00B6F0"/>
<stop offset="0.25" stop-color="#00B6F0"/>
<stop offset="0.265625" stop-color="#00B6EF"/>
<stop offset="0.28125" stop-color="#00B6EF"/>
<stop offset="0.296875" stop-color="#00B6EE"/>
<stop offset="0.3125" stop-color="#00B5EE"/>
<stop offset="0.328125" stop-color="#00B5ED"/>
<stop offset="0.34375" stop-color="#00B5EC"/>
<stop offset="0.359375" stop-color="#00B5EC"/>
<stop offset="0.375" stop-color="#00B5EB"/>
<stop offset="0.390625" stop-color="#00B5EB"/>
<stop offset="0.40625" stop-color="#00B5EA"/>
<stop offset="0.421875" stop-color="#00B5E9"/>
<stop offset="0.4375" stop-color="#00B5E8"/>
<stop offset="0.453125" stop-color="#00B5E7"/>
<stop offset="0.46875" stop-color="#00B4E6"/>
<stop offset="0.484375" stop-color="#00B4E5"/>
<stop offset="0.5" stop-color="#00B4E4"/>
<stop offset="0.515625" stop-color="#00B4E3"/>
<stop offset="0.53125" stop-color="#00B4E2"/>
<stop offset="0.546875" stop-color="#00B4E1"/>
<stop offset="0.5625" stop-color="#00B4E0"/>
<stop offset="0.578125" stop-color="#00B3DF"/>
<stop offset="0.59375" stop-color="#00B3DE"/>
<stop offset="0.609375" stop-color="#00B3DD"/>
<stop offset="0.625" stop-color="#00B3DC"/>
<stop offset="0.640625" stop-color="#00B3DB"/>
<stop offset="0.65625" stop-color="#00B3DA"/>
<stop offset="0.671875" stop-color="#00B2D9"/>
<stop offset="0.6875" stop-color="#00B2D8"/>
<stop offset="0.703125" stop-color="#00B2D7"/>
<stop offset="0.71875" stop-color="#00B2D6"/>
<stop offset="0.734375" stop-color="#00B2D5"/>
<stop offset="0.75" stop-color="#00B2D4"/>
<stop offset="0.765625" stop-color="#00B2D3"/>
<stop offset="0.78125" stop-color="#00B1D2"/>
<stop offset="0.796875" stop-color="#00B1D1"/>
<stop offset="0.804688" stop-color="#00B1D1"/>
<stop offset="0.8125" stop-color="#00B1D0"/>
<stop offset="0.820313" stop-color="#00B1D0"/>
<stop offset="0.828125" stop-color="#00B1CF"/>
<stop offset="0.835938" stop-color="#00B1CF"/>
<stop offset="0.84375" stop-color="#00B1CE"/>
<stop offset="0.851562" stop-color="#00B1CD"/>
<stop offset="0.859375" stop-color="#00B1CD"/>
<stop offset="0.867188" stop-color="#00B0CC"/>
<stop offset="0.875" stop-color="#00B0CC"/>
<stop offset="0.882813" stop-color="#00B0CB"/>
<stop offset="0.890625" stop-color="#00B0CB"/>
<stop offset="0.898438" stop-color="#00B0CA"/>
<stop offset="0.90625" stop-color="#00B0C9"/>
<stop offset="0.9375" stop-color="#00B0C9"/>
<stop offset="0.959432" stop-color="#00B0C9"/>
<stop offset="1" stop-color="#00B0C9"/>
</linearGradient>
<linearGradient id="paint2_linear_358_3929" x1="24.4759" y1="20.9254" x2="24.4759" y2="38.3948" gradientUnits="userSpaceOnUse">
<stop stop-color="#009AD2"/>
<stop offset="1" stop-color="#7ED957"/>
</linearGradient>
</defs>
</svg>
