<svg width="25" height="24" viewBox="0 0 25 24" fill="none" xmlns="http://www.w3.org/2000/svg">
<g id="fluent-mdl2:test-auto-solid" clip-path="url(#clip0_423_4313)">
<path id="Vector" d="M22.7497 18.0352C22.7966 18.2695 22.82 18.5078 22.82 18.75C22.82 18.9922 22.7966 19.2305 22.7497 19.4648L24.2028 20.0625L23.6286 21.457L22.1755 20.8477C21.9021 21.2461 21.5661 21.582 21.1677 21.8555L21.7771 23.3086L20.3825 23.8828L19.7849 22.4297C19.5505 22.4766 19.3122 22.5 19.07 22.5C18.8278 22.5 18.5896 22.4766 18.3552 22.4297L17.7575 23.8828L16.363 23.3086L16.9724 21.8555C16.5739 21.582 16.238 21.2461 15.9646 20.8477L14.5114 21.457L13.9372 20.0625L15.3903 19.4648C15.3435 19.2305 15.32 18.9922 15.32 18.75C15.32 18.5078 15.3435 18.2695 15.3903 18.0352L13.9372 17.4375L14.5114 16.043L15.9646 16.6523C16.238 16.2539 16.5739 15.918 16.9724 15.6445L16.363 14.1914L17.7575 13.6172L18.3552 15.0703C18.5896 15.0234 18.8278 15 19.07 15C19.3122 15 19.5505 15.0234 19.7849 15.0703L20.3825 13.6172L21.7771 14.1914L21.1677 15.6445C21.5661 15.918 21.9021 16.2539 22.1755 16.6523L23.6286 16.043L24.2028 17.4375L22.7497 18.0352ZM19.07 21C19.3825 21 19.6755 20.9414 19.9489 20.8242C20.2224 20.707 20.4607 20.5469 20.6638 20.3438C20.8669 20.1406 21.0271 19.9023 21.1442 19.6289C21.2614 19.3555 21.32 19.0625 21.32 18.75C21.32 18.4375 21.2614 18.1445 21.1442 17.8711C21.0271 17.5977 20.8669 17.3594 20.6638 17.1562C20.4607 16.9531 20.2224 16.793 19.9489 16.6758C19.6755 16.5586 19.3825 16.5 19.07 16.5C18.7575 16.5 18.4646 16.5586 18.1911 16.6758C17.9177 16.793 17.6794 16.9531 17.4763 17.1562C17.2732 17.3594 17.113 17.5977 16.9958 17.8711C16.8786 18.1445 16.82 18.4375 16.82 18.75C16.82 19.0625 16.8786 19.3555 16.9958 19.6289C17.113 19.9023 17.2732 20.1406 17.4763 20.3438C17.6794 20.5469 17.9177 20.707 18.1911 20.8242C18.4646 20.9414 18.7575 21 19.07 21ZM12.32 18.75C12.32 19.2578 12.3747 19.7578 12.4841 20.25C12.5935 20.7422 12.7575 21.2109 12.9763 21.6562C13.195 22.1016 13.4567 22.5234 13.7614 22.9219C14.0661 23.3203 14.4216 23.6797 14.8278 24H4.46846C4.15596 24 3.86299 23.9414 3.58956 23.8242C3.31612 23.707 3.07784 23.5469 2.87471 23.3438C2.67159 23.1406 2.50753 22.9023 2.38253 22.6289C2.25753 22.3555 2.19893 22.0625 2.20674 21.75C2.20674 21.5391 2.23409 21.3398 2.28878 21.1523C2.34346 20.9648 2.42549 20.7773 2.53487 20.5898L9.20284 8.98828C9.28096 8.84766 9.32003 8.71094 9.32003 8.57812V1.5H7.82003V0H16.82V1.5H15.32V8.57812C15.32 8.72656 15.3552 8.85938 15.4255 8.97656L17.3005 12.2344C16.8083 12.375 16.3396 12.5625 15.8942 12.7969L14.1364 9.73828C14.0349 9.55859 13.9567 9.37109 13.9021 9.17578C13.8474 8.98047 13.82 8.78125 13.82 8.57812V1.5H10.82V8.57812C10.82 8.98438 10.7107 9.375 10.4919 9.75L6.62471 16.5H12.7067C12.4489 17.2266 12.32 17.9766 12.32 18.75Z" fill="#4DB122"/>
</g>
<defs>
<clipPath id="clip0_423_4313">
<rect width="24" height="24" fill="white" transform="translate(0.319824)"/>
</clipPath>
</defs>
</svg>
