<svg width="20" height="22" viewBox="0 0 20 22" fill="none" xmlns="http://www.w3.org/2000/svg">
<g id="Group">
<path id="Vector" d="M7.1071 3.448C7.7051 1.698 10.1231 1.645 10.8321 3.289L10.8921 3.449L11.6991 5.809C11.884 6.35023 12.1829 6.84551 12.5755 7.26142C12.9682 7.67734 13.4454 8.00421 13.9751 8.22L14.1921 8.301L16.5521 9.107C18.3021 9.705 18.3551 12.123 16.7121 12.832L16.5521 12.892L14.1921 13.699C13.6507 13.8838 13.1552 14.1826 12.7391 14.5753C12.323 14.9679 11.996 15.4452 11.7801 15.975L11.6991 16.191L10.8931 18.552C10.2951 20.302 7.8771 20.355 7.1691 18.712L7.1071 18.552L6.3011 16.192C6.11628 15.6506 5.81748 15.1551 5.42485 14.739C5.03222 14.3229 4.5549 13.9959 4.0251 13.78L3.8091 13.699L1.4491 12.893C-0.301896 12.295 -0.354896 9.877 1.2891 9.169L1.4491 9.107L3.8091 8.301C4.35034 8.11606 4.84562 7.81719 5.26153 7.42457C5.67744 7.03195 6.00432 6.55469 6.2201 6.025L6.3011 5.809L7.1071 3.448ZM17.0001 1.80688e-07C17.1872 -2.35972e-07 17.3705 0.0524783 17.5293 0.151472C17.688 0.250465 17.8158 0.392003 17.8981 0.56L17.9461 0.677L18.2961 1.703L19.3231 2.053C19.5106 2.1167 19.6749 2.23462 19.7953 2.39182C19.9157 2.54902 19.9867 2.73842 19.9994 2.93602C20.012 3.13362 19.9657 3.33053 19.8663 3.50179C19.7669 3.67304 19.6189 3.81094 19.4411 3.898L19.3231 3.946L18.2971 4.296L17.9471 5.323C17.8833 5.51043 17.7653 5.6747 17.608 5.79499C17.4508 5.91529 17.2613 5.98619 17.0637 5.99872C16.8661 6.01125 16.6693 5.96484 16.4981 5.86538C16.3269 5.76591 16.1891 5.61787 16.1021 5.44L16.0541 5.323L15.7041 4.297L14.6771 3.947C14.4896 3.8833 14.3253 3.76538 14.2049 3.60819C14.0845 3.45099 14.0135 3.26158 14.0008 3.06398C13.9882 2.86638 14.0345 2.66947 14.1339 2.49821C14.2333 2.32696 14.3813 2.18906 14.5591 2.102L14.6771 2.054L15.7031 1.704L16.0531 0.677C16.1205 0.479426 16.2481 0.307909 16.4179 0.186499C16.5878 0.065089 16.7913 -0.000125281 17.0001 1.80688e-07Z" fill="#4DB122"/>
</g>
</svg>
