<svg width="21" height="21" viewBox="0 0 21 21" fill="none" xmlns="http://www.w3.org/2000/svg">
<g id="Group">
<path id="Vector" fill-rule="evenodd" clip-rule="evenodd" d="M5.65991 1C5.65991 0.734784 5.55455 0.48043 5.36702 0.292893C5.17948 0.105357 4.92513 0 4.65991 0C4.3947 0 4.14034 0.105357 3.95281 0.292893C3.76527 0.48043 3.65991 0.734784 3.65991 1V2H2.65991C2.12948 2 1.62077 2.21071 1.2457 2.58579C0.870626 2.96086 0.659912 3.46957 0.659912 4V16C0.659912 16.5304 0.870626 17.0391 1.2457 17.4142C1.62077 17.7893 2.12948 18 2.65991 18H18.6599C19.1903 18 19.6991 17.7893 20.0741 17.4142C20.4492 17.0391 20.6599 16.5304 20.6599 16V4C20.6599 3.46957 20.4492 2.96086 20.0741 2.58579C19.6991 2.21071 19.1903 2 18.6599 2H17.6599V1C17.6599 0.734784 17.5546 0.48043 17.367 0.292893C17.1795 0.105357 16.9251 0 16.6599 0C16.3947 0 16.1403 0.105357 15.9528 0.292893C15.7653 0.48043 15.6599 0.734784 15.6599 1V2H5.65991V1ZM15.6599 8C15.6599 7.73478 15.5546 7.48043 15.367 7.29289C15.1795 7.10536 14.9251 7 14.6599 7C14.3947 7 14.1403 7.10536 13.9528 7.29289C13.7653 7.48043 13.6599 7.73478 13.6599 8V9H12.6599C12.3947 9 12.1403 9.10536 11.9528 9.29289C11.7653 9.48043 11.6599 9.73478 11.6599 10C11.6599 10.2652 11.7653 10.5196 11.9528 10.7071C12.1403 10.8946 12.3947 11 12.6599 11H13.6599V12C13.6599 12.2652 13.7653 12.5196 13.9528 12.7071C14.1403 12.8946 14.3947 13 14.6599 13C14.9251 13 15.1795 12.8946 15.367 12.7071C15.5546 12.5196 15.6599 12.2652 15.6599 12V11H16.6599C16.9251 11 17.1795 10.8946 17.367 10.7071C17.5546 10.5196 17.6599 10.2652 17.6599 10C17.6599 9.73478 17.5546 9.48043 17.367 9.29289C17.1795 9.10536 16.9251 9 16.6599 9H15.6599V8ZM4.65991 9C4.3947 9 4.14034 9.10536 3.95281 9.29289C3.76527 9.48043 3.65991 9.73478 3.65991 10C3.65991 10.2652 3.76527 10.5196 3.95281 10.7071C4.14034 10.8946 4.3947 11 4.65991 11H7.65991C7.92513 11 8.17948 10.8946 8.36702 10.7071C8.55455 10.5196 8.65991 10.2652 8.65991 10C8.65991 9.73478 8.55455 9.48043 8.36702 9.29289C8.17948 9.10536 7.92513 9 7.65991 9H4.65991Z" fill="#4DB122"/>
</g>
</svg>
