<svg width="25" height="24" viewBox="0 0 25 24" fill="none" xmlns="http://www.w3.org/2000/svg">
<g id="Embedded" clip-path="url(#clip0_459_22)">
<path id="Vector" d="M5.12012 0C4.95137 0 4.82012 0.16875 4.82012 0.375V2.475H3.65762C3.26387 2.475 2.96387 2.71875 2.96387 3.0375V4.5H0.713867C0.507617 4.5 0.338867 4.63125 0.338867 4.8V5.7C0.338867 5.86875 0.507617 6 0.713867 6H2.96387V7.875H0.713867C0.507617 7.875 0.338867 8.00625 0.338867 8.175V9.075C0.338867 9.24375 0.507617 9.375 0.713867 9.375H2.96387V11.25H0.713867C0.507617 11.25 0.338867 11.3812 0.338867 11.55V12.45C0.338867 12.6188 0.507617 12.75 0.713867 12.75H2.96387V14.625H0.713867C0.507617 14.625 0.338867 14.7562 0.338867 14.925V15.825C0.338867 15.9938 0.507617 16.125 0.713867 16.125H2.96387V18H0.713867C0.507617 18 0.338867 18.1313 0.338867 18.3V19.2C0.338867 19.3687 0.507617 19.5 0.713867 19.5H2.96387V20.8125C2.96387 21.1313 3.28262 21.375 3.67637 21.375H4.85762V23.625C4.85762 23.8312 4.98887 24 5.15762 24H6.05762C6.22637 24 6.35762 23.8312 6.35762 23.625V21.375H8.23262V23.625C8.23262 23.8312 8.36387 24 8.53262 24H9.43262C9.60137 24 9.73262 23.8312 9.73262 23.625V21.375H11.6076V23.625C11.6076 23.8312 11.7389 24 11.9076 24H12.8076C12.9764 24 13.1076 23.8312 13.1076 23.625V21.375H14.9826V23.625C14.9826 23.8312 15.1139 24 15.2826 24H16.1826C16.3514 24 16.4826 23.8312 16.4826 23.625V21.375H18.3576V23.625C18.3576 23.8312 18.4889 24 18.6576 24H19.5576C19.7264 24 19.8576 23.8312 19.8576 23.625V21.375H21.0389C21.4326 21.375 21.7514 21.1313 21.7514 20.8125V19.5H24.0014C24.2076 19.5 24.3764 19.3687 24.3764 19.2V18.3C24.3764 18.1313 24.2076 18 24.0014 18H21.7514V16.125H24.0014C24.2076 16.125 24.3764 15.9938 24.3764 15.825V14.925C24.3764 14.7562 24.2076 14.625 24.0014 14.625H21.7514V12.75H24.0014C24.2076 12.75 24.3764 12.6188 24.3764 12.45V11.55C24.3764 11.3812 24.2076 11.25 24.0014 11.25H21.7514V9.375H24.0014C24.2076 9.375 24.3764 9.24375 24.3764 9.075V8.175C24.3764 8.00625 24.2076 7.875 24.0014 7.875H21.7514V6H24.0014C24.2076 6 24.3764 5.86875 24.3764 5.7V4.8C24.3764 4.63125 24.2076 4.5 24.0014 4.5H21.7514V3.0375C21.7514 2.71875 21.4326 2.475 21.0576 2.475H19.8951V0.375C19.8951 0.16875 19.7639 0 19.5951 0H18.6951C18.5264 0 18.3951 0.16875 18.3951 0.375V2.475H16.5201V0.375C16.5201 0.16875 16.3889 0 16.2201 0H15.3201C15.1514 0 15.0201 0.16875 15.0201 0.375V2.475H13.1451V0.375C13.1451 0.16875 13.0139 0 12.8451 0H11.9451C11.7764 0 11.6451 0.16875 11.6451 0.375V2.475H9.77012V0.375C9.77012 0.16875 9.63887 0 9.47012 0H8.57012C8.40137 0 8.27012 0.16875 8.27012 0.375V2.475H6.39512V0.375C6.39512 0.16875 6.26387 0 6.09512 0H5.12012ZM4.63262 3.75C4.7818 3.75 4.92488 3.80926 5.03036 3.91475C5.13585 4.02024 5.19512 4.16332 5.19512 4.3125C5.19512 4.46168 5.13585 4.60476 5.03036 4.71025C4.92488 4.81574 4.7818 4.875 4.63262 4.875C4.48343 4.875 4.34036 4.81574 4.23487 4.71025C4.12938 4.60476 4.07012 4.46168 4.07012 4.3125C4.07012 4.16332 4.12938 4.02024 4.23487 3.91475C4.34036 3.80926 4.48343 3.75 4.63262 3.75ZM12.3201 4.59375C15.0764 4.59375 17.4764 6.1125 18.7514 8.34375L16.3139 9.75C15.5264 8.34375 14.0264 7.40625 12.3201 7.40625C9.78887 7.40625 7.72637 9.46875 7.72637 12C7.72637 14.5312 9.78887 16.5938 12.3201 16.5938C14.0264 16.5938 15.5264 15.6562 16.3139 14.2687L18.7326 15.6937C17.4576 17.9062 15.0576 19.4062 12.3201 19.4062C8.23262 19.4062 4.91387 16.0875 4.91387 12C4.91387 7.9125 8.23262 4.59375 12.3201 4.59375Z" fill="#4DB122"/>
</g>
<defs>
<clipPath id="clip0_459_22">
<rect width="24" height="24" fill="white" transform="translate(0.320068)"/>
</clipPath>
</defs>
</svg>
