<svg width="24" height="24" viewBox="0 0 24 24" fill="none" xmlns="http://www.w3.org/2000/svg">
<g id="Silicon">
<path id="Vector" d="M1.91602 20.192V18.546C1.91602 18.1114 2.03202 17.723 2.26402 17.381C2.49602 17.039 2.82335 16.762 3.24602 16.55C4.05735 16.1427 4.95802 15.8144 5.94802 15.565C6.93802 15.3164 7.92735 15.192 8.91602 15.192C9.90468 15.192 10.8937 15.3164 11.883 15.565C12.8723 15.8137 13.773 16.142 14.585 16.55C15.0077 16.7614 15.335 17.038 15.567 17.38C15.7997 17.7227 15.916 18.1114 15.916 18.546V20.192H1.91602ZM8.91602 12.962C8.05935 12.962 7.34502 12.676 6.77302 12.104C6.20102 11.532 5.91535 10.7794 5.91602 9.84603H5.31902V9.07703H5.91502C5.94102 8.57036 6.04768 8.11036 6.23502 7.69703C6.42168 7.28236 6.72535 6.88736 7.14602 6.51203V7.84603H7.91602V6.15003C8.05268 6.10003 8.20768 6.05603 8.38102 6.01803C8.55435 5.98069 8.73268 5.96203 8.91602 5.96203C9.09935 5.96203 9.27735 5.98069 9.45002 6.01803C9.62268 6.05536 9.77802 6.09936 9.91602 6.15003V7.84603H10.685V6.51203C11.1183 6.88736 11.425 7.28203 11.605 7.69603C11.7863 8.11003 11.8897 8.57036 11.915 9.07703H12.512V9.84703H11.916C11.916 10.7804 11.63 11.5327 11.058 12.104C10.486 12.6754 9.77202 12.9614 8.91602 12.962ZM8.91602 11.962C9.49135 11.962 9.96835 11.7724 10.347 11.393C10.7263 11.0144 10.916 10.537 10.916 9.96103H6.91602C6.91602 10.537 7.10535 11.0144 7.48402 11.393C7.86268 11.7717 8.34002 11.962 8.91602 11.962ZM16.454 14.846L16.381 14.134C16.255 14.1007 16.1237 14.0474 15.987 13.974C15.8503 13.9007 15.734 13.8157 15.638 13.719L14.977 14.008L14.592 13.338L15.181 12.915C15.155 12.8397 15.142 12.7707 15.142 12.708V12.302C15.142 12.2454 15.155 12.1727 15.181 12.084L14.592 11.661L14.977 10.992L15.638 11.281C15.7307 11.1884 15.846 11.1044 15.984 11.029C16.1227 10.953 16.255 10.8984 16.381 10.865L16.454 10.154H17.223L17.296 10.865C17.422 10.8984 17.554 10.953 17.692 11.029C17.8307 11.1044 17.9463 11.1884 18.039 11.281L18.7 10.992L19.085 11.662L18.496 12.084C18.522 12.1727 18.535 12.2454 18.535 12.302V12.708C18.535 12.7707 18.522 12.8397 18.496 12.915L19.085 13.339L18.7 14.008L18.038 13.719C17.942 13.815 17.8257 13.9 17.689 13.974C17.5523 14.0474 17.4213 14.1007 17.296 14.134L17.223 14.846H16.454ZM16.838 13.404C17.0893 13.404 17.3027 13.316 17.478 13.14C17.654 12.9647 17.742 12.7514 17.742 12.5C17.742 12.2487 17.6543 12.0354 17.479 11.86C17.3037 11.6847 17.0903 11.5967 16.839 11.596C16.5877 11.5954 16.374 11.6834 16.198 11.86C16.022 12.0367 15.934 12.25 15.934 12.5C15.934 12.75 16.022 12.9634 16.198 13.14C16.374 13.3167 16.5873 13.4047 16.838 13.404ZM18.869 9.42303L18.784 8.64303C18.596 8.60503 18.3977 8.52936 18.189 8.41603C17.981 8.30269 17.8143 8.16403 17.689 8.00003L16.946 8.31103L16.516 7.57303L17.173 7.09303C17.1397 6.99636 17.1163 6.89736 17.103 6.79603C17.0903 6.69469 17.084 6.59603 17.084 6.50003C17.084 6.40403 17.0907 6.30536 17.104 6.20403C17.1173 6.10269 17.1403 6.00403 17.173 5.90803L16.515 5.42703L16.946 4.68803L17.688 5.00003C17.814 4.83603 17.9813 4.69736 18.19 4.58403C18.398 4.47069 18.5963 4.39536 18.785 4.35803L18.869 3.57703H19.731L19.815 4.35703C20.0037 4.39503 20.202 4.47069 20.41 4.58403C20.6187 4.69736 20.7857 4.83603 20.911 5.00003L21.654 4.68803L22.084 5.42703L21.427 5.90703C21.4603 6.00369 21.4837 6.10269 21.497 6.20403C21.509 6.30536 21.515 6.40403 21.515 6.50003C21.515 6.59603 21.5087 6.69469 21.496 6.79603C21.4833 6.89736 21.4603 6.99603 21.427 7.09203L22.085 7.57303L21.654 8.31203L20.912 8.00003C20.786 8.16403 20.619 8.30269 20.411 8.41603C20.2023 8.52936 20.004 8.60469 19.816 8.64203L19.731 9.42303H18.869ZM19.3 7.86503C19.6887 7.86503 20.0133 7.73469 20.274 7.47403C20.5347 7.21336 20.665 6.88869 20.665 6.50003C20.665 6.11136 20.5347 5.78669 20.274 5.52603C20.0133 5.26536 19.6887 5.13469 19.3 5.13403C18.9113 5.13336 18.5867 5.26403 18.326 5.52603C18.0653 5.78803 17.9347 6.11269 17.934 6.50003C17.9333 6.88736 18.064 7.21203 18.326 7.47403C18.588 7.73603 18.9127 7.86636 19.3 7.86503Z" fill="#4DB122"/>
</g>
</svg>
