<svg width="25" height="24" viewBox="0 0 25 24" fill="none" xmlns="http://www.w3.org/2000/svg">
<g id="System Design">
<path id="Vector" d="M17.4482 7.35471C17.8935 6.91174 17.8935 6.18987 17.4482 5.7469L15.8099 4.10862L15.8122 4.11096C15.3786 3.67737 14.6333 2.93206 13.5786 1.87971C13.0818 1.39456 12.2779 1.39924 11.7857 1.89143L2.55599 11.1141C2.4379 11.2314 2.34418 11.3709 2.28023 11.5245C2.21627 11.6782 2.18335 11.843 2.18335 12.0094C2.18335 12.1758 2.21627 12.3406 2.28023 12.4943C2.34418 12.6479 2.4379 12.7874 2.55599 12.9047L11.7833 22.125C12.0212 22.3625 12.3437 22.4959 12.6798 22.4959C13.016 22.4959 13.3384 22.3625 13.5763 22.125L17.4458 18.2578C17.8911 17.8149 17.8911 17.093 17.4458 16.65C17.2319 16.4372 16.9425 16.3177 16.6408 16.3177C16.339 16.3177 16.0496 16.4372 15.8357 16.65L12.906 19.5844C12.7841 19.7063 12.5943 19.7063 12.4724 19.5844L5.1013 12.2203C4.97942 12.0985 4.97942 11.9086 5.1013 11.7867L12.47 4.42268C12.4794 4.41331 12.4911 4.40628 12.5005 4.3969C12.6224 4.30081 12.7911 4.31018 12.9036 4.42268L15.838 7.35471C16.2833 7.80003 17.0052 7.80003 17.4482 7.35471ZM10.2365 12.0563C10.2365 12.7164 10.4989 13.3495 10.9662 13.8163C11.4334 14.2831 12.0671 14.5453 12.7279 14.5453C13.3886 14.5453 14.0223 14.2831 14.4896 13.8163C14.9568 13.3495 15.2193 12.7164 15.2193 12.0563C15.2193 11.3961 14.9568 10.763 14.4896 10.2962C14.0223 9.82945 13.3886 9.56721 12.7279 9.56721C12.0671 9.56721 11.4334 9.82945 10.9662 10.2962C10.4989 10.763 10.2365 11.3961 10.2365 12.0563ZM22.8036 11.1516L19.9232 8.28518C19.4779 7.84221 18.756 7.84221 18.313 8.28753C18.2071 8.39293 18.1231 8.5182 18.0658 8.65616C18.0085 8.79412 17.979 8.94204 17.979 9.09143C17.979 9.24082 18.0085 9.38875 18.0658 9.5267C18.1231 9.66466 18.2071 9.78994 18.313 9.89534L20.2583 11.8383C20.3802 11.9602 20.3802 12.15 20.2583 12.2719L18.3411 14.1867C18.2353 14.2921 18.1513 14.4174 18.0939 14.5554C18.0366 14.6933 18.0071 14.8413 18.0071 14.9907C18.0071 15.14 18.0366 15.288 18.0939 15.4259C18.1513 15.5639 18.2353 15.6892 18.3411 15.7946C18.555 16.0074 18.8445 16.1269 19.1462 16.1269C19.448 16.1269 19.7374 16.0074 19.9513 15.7946L22.806 12.9422C22.9237 12.8246 23.017 12.685 23.0806 12.5313C23.1442 12.3775 23.1768 12.2128 23.1766 12.0464C23.1764 11.8801 23.1433 11.7154 23.0793 11.5618C23.0153 11.4083 22.9216 11.2689 22.8036 11.1516Z" fill="#4DB122"/>
</g>
</svg>
