<svg width="1392" height="684" viewBox="0 0 1392 684" fill="none" xmlns="http://www.w3.org/2000/svg">
<g clip-path="url(#clip0_353_3731)">
<rect width="1392" height="684" rx="24" fill="#181818"/>
<g opacity="0.6">
<path d="M190 120H364.453L378.653 137.865V303.113L407.864 336H446V157.759H394.475" stroke="#757575" stroke-opacity="0.3"/>
<path d="M153 34.5V68.7676H192.161V247.453L211.663 253.138V377H308.764L331.516 353.446H474.528V260.042H518" stroke="#3F3F3F"/>
<path d="M528 430.007L511.333 411.311H410.927V377.172L372.715 341H278V505.196H364.585V632" stroke="#757575" stroke-opacity="0.3"/>
<path d="M139 34V180.038L165 195.858V292" stroke="#3F3F3F"/>
<path d="M205 214V131H267.914L311 173.107V214H205Z" fill="#494949" fill-opacity="0.38"/>
<path d="M278 341V248H378" stroke="#3F3F3F"/>
<path d="M217 121L262.105 75H460" stroke="#3F3F3F"/>
<path d="M463 159V48H520V141.985L500.596 159H463Z" fill="#494949" fill-opacity="0.38"/>
<path d="M473 412V459" stroke="#939393" stroke-opacity="0.6"/>
<path d="M465 412V460" stroke="#939393" stroke-opacity="0.6"/>
<path d="M456 412V460" stroke="#939393" stroke-opacity="0.6"/>
<path d="M318 23V85.44L350 123.147V246" stroke="#3F3F3F"/>
<circle cx="310.5" cy="172.5" r="3.5" fill="#2E2E2E"/>
<rect x="181" y="114" width="21" height="12" fill="#2E2E2E"/>
<rect x="130" y="171" width="17" height="18" fill="#2E2E2E"/>
<rect x="130" y="171" width="17" height="18" fill="#2E2E2E"/>
<rect x="454" y="436" width="24" height="18" fill="#2E2E2E"/>
<rect x="391" y="69" width="9" height="11" fill="#2E2E2E"/>
<rect x="425" y="229" width="11" height="24" fill="#2E2E2E"/>
<rect x="372" y="204" width="11" height="10" fill="#2E2E2E"/>
<rect x="156" y="277" width="17" height="18" fill="#2E2E2E"/>
<circle cx="278.5" cy="341.5" r="9.5" fill="#2E2E2E"/>
<circle cx="409.5" cy="410.5" r="5.5" fill="#2E2E2E"/>
<ellipse cx="474.5" cy="303" rx="3.5" ry="4" fill="#2E2E2E"/>
<circle cx="210.5" cy="295.5" r="3" fill="#2E2E2E" stroke="#3F3F3F"/>
<circle cx="211" cy="253" r="1.5" fill="#2E2E2E" stroke="#3F3F3F"/>
<circle cx="147" cy="200" r="1.5" fill="#2E2E2E" stroke="#3F3F3F"/>
<circle cx="192" cy="70" r="1.5" fill="#2E2E2E" stroke="#3F3F3F"/>
<circle cx="303.5" cy="61.5" r="6.5" fill="#2E2E2E"/>
</g>
<g filter="url(#filter0_f_353_3731)">
<ellipse cx="287.59" cy="51.1363" rx="409.141" ry="46.2355" transform="rotate(32.9146 287.59 51.1363)" fill="#38E4FF" fill-opacity="0.8"/>
</g>
<g filter="url(#filter1_f_353_3731)">
<ellipse cx="1266.87" cy="511.517" rx="424.937" ry="42.4202" transform="rotate(54.7536 1266.87 511.517)" fill="#7ED957"/>
</g>
<g opacity="0.6">
<path d="M983 535H1157.45L1171.65 517.135V351.887L1200.86 319H1239V497.241H1187.48" stroke="#757575" stroke-opacity="0.3"/>
<path d="M946 620.5V586.232H985.161V407.547L1004.66 401.862V278H1101.76L1124.52 301.554H1267.53V394.958H1311" stroke="#3F3F3F"/>
<path d="M1321 224.993L1304.33 243.689H1203.93V277.828L1165.72 314H1071V149.804H1157.59V23" stroke="#757575" stroke-opacity="0.3"/>
<path d="M932 621V474.962L958 459.142V363" stroke="#3F3F3F"/>
<path d="M998 441V524H1060.91L1104 481.893V441H998Z" fill="#494949" fill-opacity="0.38"/>
<path d="M1071 314V407H1171" stroke="#3F3F3F"/>
<path d="M1010 534L1055.11 580H1253" stroke="#3F3F3F"/>
<path d="M1256 496V607H1313V513.015L1293.6 496H1256Z" fill="#494949" fill-opacity="0.38"/>
<path d="M1266 243V196" stroke="#939393" stroke-opacity="0.6"/>
<path d="M1258 243V195" stroke="#939393" stroke-opacity="0.6"/>
<path d="M1249 243V195" stroke="#939393" stroke-opacity="0.6"/>
<path d="M1111 632V569.56L1143 531.853V409" stroke="#3F3F3F"/>
<circle cx="3.5" cy="3.5" r="3.5" transform="matrix(1 0 0 -1 1100 486)" fill="#2E2E2E"/>
<rect width="21" height="12" transform="matrix(1 0 0 -1 974 541)" fill="#2E2E2E"/>
<rect width="17" height="18" transform="matrix(1 0 0 -1 923 484)" fill="#2E2E2E"/>
<rect width="17" height="18" transform="matrix(1 0 0 -1 923 484)" fill="#2E2E2E"/>
<rect width="24" height="18" transform="matrix(1 0 0 -1 1247 219)" fill="#2E2E2E"/>
<rect width="9" height="11" transform="matrix(1 0 0 -1 1184 586)" fill="#2E2E2E"/>
<rect width="11" height="24" transform="matrix(1 0 0 -1 1218 426)" fill="#2E2E2E"/>
<rect width="11" height="10" transform="matrix(1 0 0 -1 1165 451)" fill="#2E2E2E"/>
<rect width="17" height="18" transform="matrix(1 0 0 -1 949 378)" fill="#2E2E2E"/>
<circle cx="9.5" cy="9.5" r="9.5" transform="matrix(1 0 0 -1 1062 323)" fill="#2E2E2E"/>
<circle cx="5.5" cy="5.5" r="5.5" transform="matrix(1 0 0 -1 1197 250)" fill="#2E2E2E"/>
<ellipse cx="3.5" cy="4" rx="3.5" ry="4" transform="matrix(1 0 0 -1 1264 356)" fill="#2E2E2E"/>
<circle cx="3.5" cy="3.5" r="3" transform="matrix(1 0 0 -1 1000 363)" fill="#2E2E2E" stroke="#3F3F3F"/>
<circle cx="2" cy="2" r="1.5" transform="matrix(1 0 0 -1 1002 404)" fill="#2E2E2E" stroke="#3F3F3F"/>
<circle cx="2" cy="2" r="1.5" transform="matrix(1 0 0 -1 938 457)" fill="#2E2E2E" stroke="#3F3F3F"/>
<circle cx="2" cy="2" r="1.5" transform="matrix(1 0 0 -1 983 587)" fill="#2E2E2E" stroke="#3F3F3F"/>
<circle cx="6.5" cy="6.5" r="6.5" transform="matrix(1 0 0 -1 1090 600)" fill="#2E2E2E"/>
</g>
<mask id="path-60-outside-1_353_3731" maskUnits="userSpaceOnUse" x="564" y="96" width="377" height="461" fill="black">
<rect fill="white" x="564" y="96" width="377" height="461"/>
<path d="M888.424 118.196C851.36 101.484 810.509 94.964 770.085 99.3081C729.661 103.652 691.128 118.703 658.461 142.909C625.795 167.114 600.179 199.597 584.255 237.006C568.331 274.414 562.677 315.395 567.876 355.718C573.074 396.041 588.938 434.247 613.829 466.394C638.72 498.54 671.738 523.464 709.475 538.592C747.213 553.72 788.303 558.506 828.507 552.455C868.712 546.404 906.573 529.736 938.186 504.17L880.278 432.566C861.406 447.828 838.803 457.779 814.802 461.391C790.801 465.003 766.27 462.146 743.742 453.115C721.213 444.083 701.502 429.205 686.643 410.014C671.783 390.823 662.313 368.015 659.21 343.942C656.106 319.87 659.482 295.406 668.988 273.074C678.494 250.741 693.786 231.35 713.288 216.9C732.789 202.449 755.792 193.464 779.925 190.871C804.057 188.277 828.445 192.17 850.571 202.147L888.424 118.196Z"/>
</mask>
<path d="M888.424 118.196C851.36 101.484 810.509 94.964 770.085 99.3081C729.661 103.652 691.128 118.703 658.461 142.909C625.795 167.114 600.179 199.597 584.255 237.006C568.331 274.414 562.677 315.395 567.876 355.718C573.074 396.041 588.938 434.247 613.829 466.394C638.72 498.54 671.738 523.464 709.475 538.592C747.213 553.72 788.303 558.506 828.507 552.455C868.712 546.404 906.573 529.736 938.186 504.17L880.278 432.566C861.406 447.828 838.803 457.779 814.802 461.391C790.801 465.003 766.27 462.146 743.742 453.115C721.213 444.083 701.502 429.205 686.643 410.014C671.783 390.823 662.313 368.015 659.21 343.942C656.106 319.87 659.482 295.406 668.988 273.074C678.494 250.741 693.786 231.35 713.288 216.9C732.789 202.449 755.792 193.464 779.925 190.871C804.057 188.277 828.445 192.17 850.571 202.147L888.424 118.196Z" fill="url(#paint0_linear_353_3731)" fill-opacity="0.6"/>
<path d="M888.424 118.196C851.36 101.484 810.509 94.964 770.085 99.3081C729.661 103.652 691.128 118.703 658.461 142.909C625.795 167.114 600.179 199.597 584.255 237.006C568.331 274.414 562.677 315.395 567.876 355.718C573.074 396.041 588.938 434.247 613.829 466.394C638.72 498.54 671.738 523.464 709.475 538.592C747.213 553.72 788.303 558.506 828.507 552.455C868.712 546.404 906.573 529.736 938.186 504.17L880.278 432.566C861.406 447.828 838.803 457.779 814.802 461.391C790.801 465.003 766.27 462.146 743.742 453.115C721.213 444.083 701.502 429.205 686.643 410.014C671.783 390.823 662.313 368.015 659.21 343.942C656.106 319.87 659.482 295.406 668.988 273.074C678.494 250.741 693.786 231.35 713.288 216.9C732.789 202.449 755.792 193.464 779.925 190.871C804.057 188.277 828.445 192.17 850.571 202.147L888.424 118.196Z" stroke="url(#paint1_radial_353_3731)" stroke-width="4" mask="url(#path-60-outside-1_353_3731)"/>
<path d="M429.933 200.281H411.269C410.928 197.866 410.232 195.722 409.181 193.847C408.129 191.943 406.78 190.324 405.132 188.989C403.485 187.653 401.581 186.631 399.422 185.92C397.291 185.21 394.976 184.855 392.476 184.855C387.959 184.855 384.024 185.977 380.672 188.222C377.32 190.437 374.72 193.676 372.874 197.938C371.027 202.17 370.104 207.312 370.104 213.364C370.104 219.585 371.027 224.812 372.874 229.045C374.749 233.278 377.362 236.474 380.715 238.634C384.067 240.793 387.945 241.872 392.348 241.872C394.82 241.872 397.107 241.545 399.209 240.892C401.34 240.239 403.229 239.287 404.877 238.037C406.524 236.759 407.888 235.21 408.967 233.392C410.075 231.574 410.842 229.5 411.269 227.17L429.933 227.256C429.45 231.261 428.243 235.125 426.311 238.847C424.408 242.54 421.837 245.849 418.598 248.776C415.388 251.673 411.553 253.974 407.092 255.679C402.661 257.355 397.646 258.193 392.05 258.193C384.266 258.193 377.306 256.432 371.169 252.909C365.061 249.386 360.232 244.287 356.681 237.611C353.158 230.935 351.396 222.852 351.396 213.364C351.396 203.847 353.186 195.75 356.766 189.074C360.345 182.398 365.203 177.312 371.34 173.818C377.476 170.295 384.379 168.534 392.05 168.534C397.107 168.534 401.794 169.244 406.112 170.665C410.459 172.085 414.308 174.159 417.661 176.886C421.013 179.585 423.74 182.895 425.842 186.815C427.973 190.736 429.337 195.224 429.933 200.281ZM454.417 169.727V257H435.965V169.727H454.417ZM462.398 257V169.727H480.849V241.787H518.264V257H462.398ZM523.284 257V169.727H541.735V208.207H542.886L574.292 169.727H596.409L564.022 208.804L596.792 257H574.718L550.812 221.119L541.735 232.199V257H523.284ZM598.818 257V169.727H657.625V184.94H617.27V205.736H654.599V220.949H617.27V241.787H657.795V257H598.818ZM738.092 169.727V257H722.154L684.186 202.071H683.546V257H665.095V169.727H681.288L718.958 224.614H719.725V169.727H738.092ZM823.14 200.281H804.475C804.134 197.866 803.438 195.722 802.387 193.847C801.336 191.943 799.986 190.324 798.338 188.989C796.691 187.653 794.787 186.631 792.628 185.92C790.498 185.21 788.182 184.855 785.682 184.855C781.165 184.855 777.231 185.977 773.878 188.222C770.526 190.437 767.927 193.676 766.08 197.938C764.233 202.17 763.31 207.312 763.31 213.364C763.31 219.585 764.233 224.812 766.08 229.045C767.955 233.278 770.569 236.474 773.921 238.634C777.273 240.793 781.151 241.872 785.554 241.872C788.026 241.872 790.313 241.545 792.415 240.892C794.546 240.239 796.435 239.287 798.083 238.037C799.731 236.759 801.094 235.21 802.174 233.392C803.282 231.574 804.049 229.5 804.475 227.17L823.14 227.256C822.657 231.261 821.449 235.125 819.517 238.847C817.614 242.54 815.043 245.849 811.804 248.776C808.594 251.673 804.759 253.974 800.299 255.679C795.867 257.355 790.853 258.193 785.256 258.193C777.472 258.193 770.512 256.432 764.375 252.909C758.267 249.386 753.438 244.287 749.887 237.611C746.364 230.935 744.603 222.852 744.603 213.364C744.603 203.847 746.392 195.75 749.972 189.074C753.552 182.398 758.409 177.312 764.546 173.818C770.682 170.295 777.586 168.534 785.256 168.534C790.313 168.534 795 169.244 799.319 170.665C803.665 172.085 807.515 174.159 810.867 176.886C814.219 179.585 816.946 182.895 819.049 186.815C821.179 190.736 822.543 195.224 823.14 200.281ZM842.573 257H822.8L852.928 169.727H876.707L906.792 257H887.019L865.158 189.67H864.477L842.573 257ZM841.337 222.696H888.042V237.099H841.337V222.696ZM914.965 169.727L936.059 236.034H936.868L958.005 169.727H978.459L948.374 257H924.596L894.468 169.727H914.965ZM981.763 257V169.727H1040.57V184.94H1000.22V205.736H1037.54V220.949H1000.22V241.787H1040.74V257H981.763Z" fill="url(#paint2_linear_353_3731)" fill-opacity="0.3"/>
</g>
<defs>
<filter id="filter0_f_353_3731" x="-456.809" y="-574.586" width="1488.8" height="1251.44" filterUnits="userSpaceOnUse" color-interpolation-filters="sRGB">
<feFlood flood-opacity="0" result="BackgroundImageFix"/>
<feBlend mode="normal" in="SourceGraphic" in2="BackgroundImageFix" result="shape"/>
<feGaussianBlur stdDeviation="200" result="effect1_foregroundBlur_353_3731"/>
</filter>
<filter id="filter1_f_353_3731" x="619.178" y="-236.397" width="1295.39" height="1495.83" filterUnits="userSpaceOnUse" color-interpolation-filters="sRGB">
<feFlood flood-opacity="0" result="BackgroundImageFix"/>
<feBlend mode="normal" in="SourceGraphic" in2="BackgroundImageFix" result="shape"/>
<feGaussianBlur stdDeviation="200" result="effect1_foregroundBlur_353_3731"/>
</filter>
<linearGradient id="paint0_linear_353_3731" x1="1087.5" y1="83.5" x2="1039" y2="448" gradientUnits="userSpaceOnUse">
<stop stop-color="#708D91" stop-opacity="0.1"/>
<stop offset="1" stop-color="#181818"/>
</linearGradient>
<radialGradient id="paint1_radial_353_3731" cx="0" cy="0" r="1" gradientUnits="userSpaceOnUse" gradientTransform="translate(648.5 147) rotate(37.2277) scale(128.102)">
<stop stop-color="#E7FBDE"/>
<stop offset="1" stop-color="#181818" stop-opacity="0"/>
</radialGradient>
<linearGradient id="paint2_linear_353_3731" x1="352.641" y1="126.5" x2="1045.38" y2="224.745" gradientUnits="userSpaceOnUse">
<stop stop-color="white"/>
<stop offset="0.382661" stop-color="#999999" stop-opacity="0"/>
<stop offset="0.689576" stop-color="#999999" stop-opacity="0"/>
<stop offset="1" stop-color="#999999"/>
</linearGradient>
<clipPath id="clip0_353_3731">
<rect width="1392" height="684" rx="24" fill="white"/>
</clipPath>
</defs>
</svg>
