<svg width="1392" height="684" viewBox="0 0 1392 684" fill="none" xmlns="http://www.w3.org/2000/svg">
<g clip-path="url(#clip0_548_3608)">
<rect width="1392" height="684" rx="24" fill="#181818"/>
<g filter="url(#filter0_f_548_3608)">
<ellipse cx="1391.59" cy="547.136" rx="409.141" ry="46.2355" transform="rotate(32.9146 1391.59 547.136)" fill="#38E4FF" fill-opacity="0.8"/>
</g>
<g filter="url(#filter1_f_548_3608)">
<ellipse cx="224.872" cy="33.5172" rx="424.937" ry="42.4202" transform="rotate(54.7536 224.872 33.5172)" fill="#7ED957"/>
</g>
<mask id="path-4-outside-1_548_3608" maskUnits="userSpaceOnUse" x="564" y="96" width="377" height="461" fill="black">
<rect fill="white" x="564" y="96" width="377" height="461"/>
<path d="M888.424 118.196C851.36 101.484 810.509 94.964 770.085 99.3081C729.661 103.652 691.128 118.703 658.461 142.909C625.795 167.114 600.179 199.597 584.255 237.006C568.331 274.414 562.677 315.395 567.876 355.718C573.074 396.041 588.938 434.247 613.829 466.394C638.72 498.54 671.738 523.464 709.475 538.592C747.213 553.72 788.303 558.506 828.507 552.455C868.712 546.404 906.573 529.736 938.186 504.17L880.278 432.566C861.406 447.828 838.803 457.779 814.802 461.391C790.801 465.003 766.27 462.146 743.742 453.115C721.213 444.083 701.502 429.205 686.643 410.014C671.783 390.823 662.313 368.015 659.21 343.942C656.106 319.87 659.482 295.406 668.988 273.074C678.494 250.741 693.786 231.35 713.288 216.9C732.789 202.449 755.792 193.464 779.925 190.871C804.057 188.277 828.445 192.17 850.571 202.147L888.424 118.196Z"/>
</mask>
<path d="M888.424 118.196C851.36 101.484 810.509 94.964 770.085 99.3081C729.661 103.652 691.128 118.703 658.461 142.909C625.795 167.114 600.179 199.597 584.255 237.006C568.331 274.414 562.677 315.395 567.876 355.718C573.074 396.041 588.938 434.247 613.829 466.394C638.72 498.54 671.738 523.464 709.475 538.592C747.213 553.72 788.303 558.506 828.507 552.455C868.712 546.404 906.573 529.736 938.186 504.17L880.278 432.566C861.406 447.828 838.803 457.779 814.802 461.391C790.801 465.003 766.27 462.146 743.742 453.115C721.213 444.083 701.502 429.205 686.643 410.014C671.783 390.823 662.313 368.015 659.21 343.942C656.106 319.87 659.482 295.406 668.988 273.074C678.494 250.741 693.786 231.35 713.288 216.9C732.789 202.449 755.792 193.464 779.925 190.871C804.057 188.277 828.445 192.17 850.571 202.147L888.424 118.196Z" fill="url(#paint0_linear_548_3608)" fill-opacity="0.6"/>
<path d="M888.424 118.196C851.36 101.484 810.509 94.964 770.085 99.3081C729.661 103.652 691.128 118.703 658.461 142.909C625.795 167.114 600.179 199.597 584.255 237.006C568.331 274.414 562.677 315.395 567.876 355.718C573.074 396.041 588.938 434.247 613.829 466.394C638.72 498.54 671.738 523.464 709.475 538.592C747.213 553.72 788.303 558.506 828.507 552.455C868.712 546.404 906.573 529.736 938.186 504.17L880.278 432.566C861.406 447.828 838.803 457.779 814.802 461.391C790.801 465.003 766.27 462.146 743.742 453.115C721.213 444.083 701.502 429.205 686.643 410.014C671.783 390.823 662.313 368.015 659.21 343.942C656.106 319.87 659.482 295.406 668.988 273.074C678.494 250.741 693.786 231.35 713.288 216.9C732.789 202.449 755.792 193.464 779.925 190.871C804.057 188.277 828.445 192.17 850.571 202.147L888.424 118.196Z" stroke="url(#paint1_radial_548_3608)" stroke-width="4" mask="url(#path-4-outside-1_548_3608)"/>
<path d="M138.05 260V260.5H138.357L138.496 260.227L138.05 260ZM153.803 229V228.5H153.496L153.357 228.773L153.803 229ZM270.333 229C270.333 230.473 271.527 231.667 273 231.667C274.473 231.667 275.667 230.473 275.667 229C275.667 227.527 274.473 226.333 273 226.333C271.527 226.333 270.333 227.527 270.333 229ZM1 260.5H138.05V259.5H1V260.5ZM138.496 260.227L154.249 229.227L153.357 228.773L137.604 259.773L138.496 260.227ZM153.803 229.5H273V228.5H153.803V229.5Z" fill="#494949" fill-opacity="0.45"/>
<path d="M137.05 411V410.5H137.343L137.486 410.755L137.05 411ZM152.803 439V439.5H152.511L152.367 439.245L152.803 439ZM269.333 439C269.333 437.527 270.527 436.333 272 436.333C273.473 436.333 274.667 437.527 274.667 439C274.667 440.473 273.473 441.667 272 441.667C270.527 441.667 269.333 440.473 269.333 439ZM0 410.5H137.05V411.5H0V410.5ZM137.486 410.755L153.239 438.755L152.367 439.245L136.614 411.245L137.486 410.755ZM152.803 438.5H272V439.5H152.803V438.5Z" fill="#494949" fill-opacity="0.45"/>
<path d="M123.438 244V244.5H123.751L123.888 244.218L123.438 244ZM137.512 215V214.5H137.198L137.062 214.782L137.512 215ZM241.333 215C241.333 216.473 242.527 217.667 244 217.667C245.473 217.667 246.667 216.473 246.667 215C246.667 213.527 245.473 212.333 244 212.333C242.527 212.333 241.333 213.527 241.333 215ZM1 244.5H123.438V243.5H1V244.5ZM123.888 244.218L137.961 215.218L137.062 214.782L122.988 243.782L123.888 244.218ZM137.512 215.5H244V214.5H137.512V215.5Z" fill="#494949" fill-opacity="0.45"/>
<path d="M124.438 432V431.5H124.751L124.888 431.782L124.438 432ZM138.512 461V461.5H138.198L138.062 461.218L138.512 461ZM242.333 461C242.333 459.527 243.527 458.333 245 458.333C246.473 458.333 247.667 459.527 247.667 461C247.667 462.473 246.473 463.667 245 463.667C243.527 463.667 242.333 462.473 242.333 461ZM2 431.5H124.438V432.5H2V431.5ZM124.888 431.782L138.961 460.782L138.062 461.218L123.988 432.218L124.888 431.782ZM138.512 460.5H245V461.5H138.512V460.5Z" fill="#494949" fill-opacity="0.45"/>
<path d="M113.361 226V226.5H113.676L113.812 226.216L113.361 226ZM126.276 199V198.5H125.961L125.825 198.784L126.276 199ZM221.333 199C221.333 200.473 222.527 201.667 224 201.667C225.473 201.667 226.667 200.473 226.667 199C226.667 197.527 225.473 196.333 224 196.333C222.527 196.333 221.333 197.527 221.333 199ZM1 226.5H113.361V225.5H1V226.5ZM113.812 226.216L126.727 199.216L125.825 198.784L112.91 225.784L113.812 226.216ZM126.276 199.5H224V198.5H126.276V199.5Z" fill="#494949" fill-opacity="0.45"/>
<path d="M114.361 457V456.5H114.676L114.812 456.784L114.361 457ZM127.276 484V484.5H126.961L126.825 484.216L127.276 484ZM222.333 484C222.333 482.527 223.527 481.333 225 481.333C226.473 481.333 227.667 482.527 227.667 484C227.667 485.473 226.473 486.667 225 486.667C223.527 486.667 222.333 485.473 222.333 484ZM2 456.5H114.361V457.5H2V456.5ZM114.812 456.784L127.727 483.784L126.825 484.216L113.91 457.216L114.812 456.784ZM127.276 483.5H225V484.5H127.276V483.5Z" fill="#494949" fill-opacity="0.45"/>
<path d="M269.333 276C269.333 277.473 270.527 278.667 272 278.667C273.473 278.667 274.667 277.473 274.667 276C274.667 274.527 273.473 273.333 272 273.333C270.527 273.333 269.333 274.527 269.333 276ZM1 276.5H137.81V275.5H1V276.5ZM137.81 276.5H272V275.5H137.81V276.5Z" fill="#494949" fill-opacity="0.45"/>
<path d="M269.333 396C269.333 397.473 270.527 398.667 272 398.667C273.473 398.667 274.667 397.473 274.667 396C274.667 394.527 273.473 393.333 272 393.333C270.527 393.333 269.333 394.527 269.333 396ZM1 396.5H137.81V395.5H1V396.5ZM137.81 396.5H272V395.5H137.81V396.5Z" fill="#494949" fill-opacity="0.45"/>
<path d="M210.333 292C210.333 293.473 211.527 294.667 213 294.667C214.473 294.667 215.667 293.473 215.667 292C215.667 290.527 214.473 289.333 213 289.333C211.527 289.333 210.333 290.527 210.333 292ZM2 292.5H108.52V291.5H2V292.5ZM108.52 292.5H213V291.5H108.52V292.5Z" fill="#494949" fill-opacity="0.45"/>
<path d="M209.333 376C209.333 377.473 210.527 378.667 212 378.667C213.473 378.667 214.667 377.473 214.667 376C214.667 374.527 213.473 373.333 212 373.333C210.527 373.333 209.333 374.527 209.333 376ZM1 376.5H107.52V375.5H1V376.5ZM107.52 376.5H212V375.5H107.52V376.5Z" fill="#494949" fill-opacity="0.45"/>
<path d="M176.333 309C176.333 310.473 177.527 311.667 179 311.667C180.473 311.667 181.667 310.473 181.667 309C181.667 307.527 180.473 306.333 179 306.333C177.527 306.333 176.333 307.527 176.333 309ZM1 309.5H90.8607V308.5H1V309.5ZM90.8607 309.5H179V308.5H90.8607V309.5Z" fill="#494949" fill-opacity="0.45"/>
<path d="M147.333 324C147.333 325.473 148.527 326.667 150 326.667C151.473 326.667 152.667 325.473 152.667 324C152.667 322.527 151.473 321.333 150 321.333C148.527 321.333 147.333 322.527 147.333 324ZM1 324.5H76.2205V323.5H1V324.5ZM76.2205 324.5H150V323.5H76.2205V324.5Z" fill="#494949" fill-opacity="0.45"/>
<path d="M147.333 356C147.333 357.473 148.527 358.667 150 358.667C151.473 358.667 152.667 357.473 152.667 356C152.667 354.527 151.473 353.333 150 353.333C148.527 353.333 147.333 354.527 147.333 356ZM1 356.5H76.2205V355.5H1V356.5ZM76.2205 356.5H150V355.5H76.2205V356.5Z" fill="#494949" fill-opacity="0.45"/>
<path d="M109.333 340C109.333 341.473 110.527 342.667 112 342.667C113.473 342.667 114.667 341.473 114.667 340C114.667 338.527 113.473 337.333 112 337.333C110.527 337.333 109.333 338.527 109.333 340ZM1 340.5H57.0368V339.5H1V340.5ZM57.0368 340.5H112V339.5H57.0368V340.5Z" fill="#494949" fill-opacity="0.45"/>
<path d="M1253.95 260V260.5H1253.64L1253.5 260.227L1253.95 260ZM1238.2 229V228.5H1238.5L1238.64 228.773L1238.2 229ZM1121.67 229C1121.67 230.473 1120.47 231.667 1119 231.667C1117.53 231.667 1116.33 230.473 1116.33 229C1116.33 227.527 1117.53 226.333 1119 226.333C1120.47 226.333 1121.67 227.527 1121.67 229ZM1391 260.5H1253.95V259.5H1391V260.5ZM1253.5 260.227L1237.75 229.227L1238.64 228.773L1254.4 259.773L1253.5 260.227ZM1238.2 229.5H1119V228.5H1238.2V229.5Z" fill="#494949" fill-opacity="0.45"/>
<path d="M1254.95 411V410.5H1254.66L1254.51 410.755L1254.95 411ZM1239.2 439V439.5H1239.49L1239.63 439.245L1239.2 439ZM1122.67 439C1122.67 437.527 1121.47 436.333 1120 436.333C1118.53 436.333 1117.33 437.527 1117.33 439C1117.33 440.473 1118.53 441.667 1120 441.667C1121.47 441.667 1122.67 440.473 1122.67 439ZM1392 410.5H1254.95V411.5H1392V410.5ZM1254.51 410.755L1238.76 438.755L1239.63 439.245L1255.39 411.245L1254.51 410.755ZM1239.2 438.5H1120V439.5H1239.2V438.5Z" fill="#494949" fill-opacity="0.45"/>
<path d="M1268.56 244V244.5H1268.25L1268.11 244.218L1268.56 244ZM1254.49 215V214.5H1254.8L1254.94 214.782L1254.49 215ZM1150.67 215C1150.67 216.473 1149.47 217.667 1148 217.667C1146.53 217.667 1145.33 216.473 1145.33 215C1145.33 213.527 1146.53 212.333 1148 212.333C1149.47 212.333 1150.67 213.527 1150.67 215ZM1391 244.5H1268.56V243.5H1391V244.5ZM1268.11 244.218L1254.04 215.218L1254.94 214.782L1269.01 243.782L1268.11 244.218ZM1254.49 215.5H1148V214.5H1254.49V215.5Z" fill="#494949" fill-opacity="0.45"/>
<path d="M1267.56 432V431.5H1267.25L1267.11 431.782L1267.56 432ZM1253.49 461V461.5H1253.8L1253.94 461.218L1253.49 461ZM1149.67 461C1149.67 459.527 1148.47 458.333 1147 458.333C1145.53 458.333 1144.33 459.527 1144.33 461C1144.33 462.473 1145.53 463.667 1147 463.667C1148.47 463.667 1149.67 462.473 1149.67 461ZM1390 431.5H1267.56V432.5H1390V431.5ZM1267.11 431.782L1253.04 460.782L1253.94 461.218L1268.01 432.218L1267.11 431.782ZM1253.49 460.5H1147V461.5H1253.49V460.5Z" fill="#494949" fill-opacity="0.45"/>
<path d="M1278.64 226V226.5H1278.32L1278.19 226.216L1278.64 226ZM1265.72 199V198.5H1266.04L1266.17 198.784L1265.72 199ZM1170.67 199C1170.67 200.473 1169.47 201.667 1168 201.667C1166.53 201.667 1165.33 200.473 1165.33 199C1165.33 197.527 1166.53 196.333 1168 196.333C1169.47 196.333 1170.67 197.527 1170.67 199ZM1391 226.5H1278.64V225.5H1391V226.5ZM1278.19 226.216L1265.27 199.216L1266.17 198.784L1279.09 225.784L1278.19 226.216ZM1265.72 199.5H1168V198.5H1265.72V199.5Z" fill="#494949" fill-opacity="0.45"/>
<path d="M1277.64 457V456.5H1277.32L1277.19 456.784L1277.64 457ZM1264.72 484V484.5H1265.04L1265.17 484.216L1264.72 484ZM1169.67 484C1169.67 482.527 1168.47 481.333 1167 481.333C1165.53 481.333 1164.33 482.527 1164.33 484C1164.33 485.473 1165.53 486.667 1167 486.667C1168.47 486.667 1169.67 485.473 1169.67 484ZM1390 456.5H1277.64V457.5H1390V456.5ZM1277.19 456.784L1264.27 483.784L1265.17 484.216L1278.09 457.216L1277.19 456.784ZM1264.72 483.5H1167V484.5H1264.72V483.5Z" fill="#494949" fill-opacity="0.45"/>
<path d="M1122.67 276C1122.67 277.473 1121.47 278.667 1120 278.667C1118.53 278.667 1117.33 277.473 1117.33 276C1117.33 274.527 1118.53 273.333 1120 273.333C1121.47 273.333 1122.67 274.527 1122.67 276ZM1391 276.5H1254.19V275.5H1391V276.5ZM1254.19 276.5H1120V275.5H1254.19V276.5Z" fill="#494949" fill-opacity="0.45"/>
<path d="M1122.67 396C1122.67 397.473 1121.47 398.667 1120 398.667C1118.53 398.667 1117.33 397.473 1117.33 396C1117.33 394.527 1118.53 393.333 1120 393.333C1121.47 393.333 1122.67 394.527 1122.67 396ZM1391 396.5H1254.19V395.5H1391V396.5ZM1254.19 396.5H1120V395.5H1254.19V396.5Z" fill="#494949" fill-opacity="0.45"/>
<path d="M1181.67 292C1181.67 293.473 1180.47 294.667 1179 294.667C1177.53 294.667 1176.33 293.473 1176.33 292C1176.33 290.527 1177.53 289.333 1179 289.333C1180.47 289.333 1181.67 290.527 1181.67 292ZM1390 292.5H1283.48V291.5H1390V292.5ZM1283.48 292.5H1179V291.5H1283.48V292.5Z" fill="#494949" fill-opacity="0.45"/>
<path d="M1182.67 376C1182.67 377.473 1181.47 378.667 1180 378.667C1178.53 378.667 1177.33 377.473 1177.33 376C1177.33 374.527 1178.53 373.333 1180 373.333C1181.47 373.333 1182.67 374.527 1182.67 376ZM1391 376.5H1284.48V375.5H1391V376.5ZM1284.48 376.5H1180V375.5H1284.48V376.5Z" fill="#494949" fill-opacity="0.45"/>
<path d="M1215.67 309C1215.67 310.473 1214.47 311.667 1213 311.667C1211.53 311.667 1210.33 310.473 1210.33 309C1210.33 307.527 1211.53 306.333 1213 306.333C1214.47 306.333 1215.67 307.527 1215.67 309ZM1391 309.5H1301.14V308.5H1391V309.5ZM1301.14 309.5H1213V308.5H1301.14V309.5Z" fill="#494949" fill-opacity="0.45"/>
<path d="M1244.67 324C1244.67 325.473 1243.47 326.667 1242 326.667C1240.53 326.667 1239.33 325.473 1239.33 324C1239.33 322.527 1240.53 321.333 1242 321.333C1243.47 321.333 1244.67 322.527 1244.67 324ZM1391 324.5H1315.78V323.5H1391V324.5ZM1315.78 324.5H1242V323.5H1315.78V324.5Z" fill="#494949" fill-opacity="0.45"/>
<path d="M1244.67 356C1244.67 357.473 1243.47 358.667 1242 358.667C1240.53 358.667 1239.33 357.473 1239.33 356C1239.33 354.527 1240.53 353.333 1242 353.333C1243.47 353.333 1244.67 354.527 1244.67 356ZM1391 356.5H1315.78V355.5H1391V356.5ZM1315.78 356.5H1242V355.5H1315.78V356.5Z" fill="#494949" fill-opacity="0.45"/>
<path d="M1282.67 340C1282.67 341.473 1281.47 342.667 1280 342.667C1278.53 342.667 1277.33 341.473 1277.33 340C1277.33 338.527 1278.53 337.333 1280 337.333C1281.47 337.333 1282.67 338.527 1282.67 340ZM1391 340.5H1334.96V339.5H1391V340.5ZM1334.96 340.5H1280V339.5H1334.96V340.5Z" fill="#494949" fill-opacity="0.45"/>
<path d="M429.933 200.281H411.269C410.928 197.866 410.232 195.722 409.181 193.847C408.129 191.943 406.78 190.324 405.132 188.989C403.485 187.653 401.581 186.631 399.422 185.92C397.291 185.21 394.976 184.855 392.476 184.855C387.959 184.855 384.024 185.977 380.672 188.222C377.32 190.437 374.72 193.676 372.874 197.938C371.027 202.17 370.104 207.312 370.104 213.364C370.104 219.585 371.027 224.812 372.874 229.045C374.749 233.278 377.362 236.474 380.715 238.634C384.067 240.793 387.945 241.872 392.348 241.872C394.82 241.872 397.107 241.545 399.209 240.892C401.34 240.239 403.229 239.287 404.877 238.037C406.524 236.759 407.888 235.21 408.967 233.392C410.075 231.574 410.842 229.5 411.269 227.17L429.933 227.256C429.45 231.261 428.243 235.125 426.311 238.847C424.408 242.54 421.837 245.849 418.598 248.776C415.388 251.673 411.553 253.974 407.092 255.679C402.661 257.355 397.646 258.193 392.05 258.193C384.266 258.193 377.306 256.432 371.169 252.909C365.061 249.386 360.232 244.287 356.681 237.611C353.158 230.935 351.396 222.852 351.396 213.364C351.396 203.847 353.186 195.75 356.766 189.074C360.345 182.398 365.203 177.312 371.34 173.818C377.476 170.295 384.379 168.534 392.05 168.534C397.107 168.534 401.794 169.244 406.112 170.665C410.459 172.085 414.308 174.159 417.661 176.886C421.013 179.585 423.74 182.895 425.842 186.815C427.973 190.736 429.337 195.224 429.933 200.281ZM454.417 169.727V257H435.965V169.727H454.417ZM462.398 257V169.727H480.849V241.787H518.264V257H462.398ZM523.284 257V169.727H541.735V208.207H542.886L574.292 169.727H596.409L564.022 208.804L596.792 257H574.718L550.812 221.119L541.735 232.199V257H523.284ZM598.818 257V169.727H657.625V184.94H617.27V205.736H654.599V220.949H617.27V241.787H657.795V257H598.818ZM738.092 169.727V257H722.154L684.186 202.071H683.546V257H665.095V169.727H681.288L718.958 224.614H719.725V169.727H738.092ZM823.14 200.281H804.475C804.134 197.866 803.438 195.722 802.387 193.847C801.336 191.943 799.986 190.324 798.338 188.989C796.691 187.653 794.787 186.631 792.628 185.92C790.498 185.21 788.182 184.855 785.682 184.855C781.165 184.855 777.231 185.977 773.878 188.222C770.526 190.437 767.927 193.676 766.08 197.938C764.233 202.17 763.31 207.312 763.31 213.364C763.31 219.585 764.233 224.812 766.08 229.045C767.955 233.278 770.569 236.474 773.921 238.634C777.273 240.793 781.151 241.872 785.554 241.872C788.026 241.872 790.313 241.545 792.415 240.892C794.546 240.239 796.435 239.287 798.083 238.037C799.731 236.759 801.094 235.21 802.174 233.392C803.282 231.574 804.049 229.5 804.475 227.17L823.14 227.256C822.657 231.261 821.449 235.125 819.517 238.847C817.614 242.54 815.043 245.849 811.804 248.776C808.594 251.673 804.759 253.974 800.299 255.679C795.867 257.355 790.853 258.193 785.256 258.193C777.472 258.193 770.512 256.432 764.375 252.909C758.267 249.386 753.438 244.287 749.887 237.611C746.364 230.935 744.603 222.852 744.603 213.364C744.603 203.847 746.392 195.75 749.972 189.074C753.552 182.398 758.409 177.312 764.546 173.818C770.682 170.295 777.586 168.534 785.256 168.534C790.313 168.534 795 169.244 799.319 170.665C803.665 172.085 807.515 174.159 810.867 176.886C814.219 179.585 816.946 182.895 819.049 186.815C821.179 190.736 822.543 195.224 823.14 200.281ZM842.573 257H822.8L852.928 169.727H876.707L906.792 257H887.019L865.158 189.67H864.477L842.573 257ZM841.337 222.696H888.042V237.099H841.337V222.696ZM914.965 169.727L936.059 236.034H936.868L958.005 169.727H978.459L948.374 257H924.596L894.468 169.727H914.965ZM981.763 257V169.727H1040.57V184.94H1000.22V205.736H1037.54V220.949H1000.22V241.787H1040.74V257H981.763Z" fill="url(#paint2_linear_548_3608)" fill-opacity="0.3"/>
<path d="M1130 177L1149.5 163H1186L1167.5 177H1130Z" fill="#494949" fill-opacity="0.3"/>
<path d="M79 140L98.5 126H135L116.5 140H79Z" fill="#494949" fill-opacity="0.3"/>
<path d="M1080 550.023L1099.57 542.324L1130.58 550.172L1111.85 558.086L1080 550.023Z" fill="#494949" fill-opacity="0.3"/>
<path d="M40.6183 525.175L61.6385 524.438L88.2545 542.169L67.9635 543.391L40.6183 525.175Z" fill="#494949" fill-opacity="0.3"/>
<path d="M1207 150L1219.19 141H1242L1230.44 150H1207Z" fill="#494949" fill-opacity="0.3"/>
<path d="M156 113L168.188 104H191L179.438 113H156Z" fill="#494949" fill-opacity="0.3"/>
<path d="M1151.21 543.645L1163.5 538.62L1182.87 543.525L1171.12 548.684L1151.21 543.645Z" fill="#494949" fill-opacity="0.3"/>
<path d="M109.883 542.89L123.142 542.247L139.777 553.329L126.973 554.275L109.883 542.89Z" fill="#494949" fill-opacity="0.3"/>
<path d="M1213 178L1223.1 171H1242L1232.42 178H1213Z" fill="#494949" fill-opacity="0.3"/>
<path d="M162 141L172.098 134H191L181.42 141H162Z" fill="#494949" fill-opacity="0.3"/>
<path d="M1150.29 568.718L1160.37 564.943L1176.42 569.007L1166.78 572.893L1150.29 568.718Z" fill="#494949" fill-opacity="0.3"/>
<path d="M1259 156L1266.31 151H1280L1273.06 156H1259Z" fill="#494949" fill-opacity="0.3"/>
<path d="M208 119L215.312 114H229L222.062 119H208Z" fill="#494949" fill-opacity="0.3"/>
<path d="M1194.09 559.921L1201.37 557.247L1213 560.189L1206.03 562.945L1194.09 559.921Z" fill="#494949" fill-opacity="0.3"/>
</g>
<defs>
<filter id="filter0_f_548_3608" x="647.191" y="-78.5862" width="1488.8" height="1251.44" filterUnits="userSpaceOnUse" color-interpolation-filters="sRGB">
<feFlood flood-opacity="0" result="BackgroundImageFix"/>
<feBlend mode="normal" in="SourceGraphic" in2="BackgroundImageFix" result="shape"/>
<feGaussianBlur stdDeviation="200" result="effect1_foregroundBlur_548_3608"/>
</filter>
<filter id="filter1_f_548_3608" x="-422.823" y="-714.396" width="1295.39" height="1495.83" filterUnits="userSpaceOnUse" color-interpolation-filters="sRGB">
<feFlood flood-opacity="0" result="BackgroundImageFix"/>
<feBlend mode="normal" in="SourceGraphic" in2="BackgroundImageFix" result="shape"/>
<feGaussianBlur stdDeviation="200" result="effect1_foregroundBlur_548_3608"/>
</filter>
<linearGradient id="paint0_linear_548_3608" x1="1087.5" y1="83.5" x2="1039" y2="448" gradientUnits="userSpaceOnUse">
<stop stop-color="#708D91" stop-opacity="0.1"/>
<stop offset="1" stop-color="#181818"/>
</linearGradient>
<radialGradient id="paint1_radial_548_3608" cx="0" cy="0" r="1" gradientUnits="userSpaceOnUse" gradientTransform="translate(648.5 147) rotate(37.2277) scale(128.102)">
<stop stop-color="#E7FBDE"/>
<stop offset="1" stop-color="#181818" stop-opacity="0"/>
</radialGradient>
<linearGradient id="paint2_linear_548_3608" x1="352.641" y1="126.5" x2="1045.38" y2="224.745" gradientUnits="userSpaceOnUse">
<stop stop-color="white"/>
<stop offset="0.382661" stop-color="#999999" stop-opacity="0"/>
<stop offset="0.689576" stop-color="#999999" stop-opacity="0"/>
<stop offset="1" stop-color="#999999"/>
</linearGradient>
<clipPath id="clip0_548_3608">
<rect width="1392" height="684" rx="24" fill="white"/>
</clipPath>
</defs>
</svg>
