<svg width="500" height="500" viewBox="0 0 500 500" fill="none" xmlns="http://www.w3.org/2000/svg">
<mask id="mask0_7_734" style="mask-type:luminance" maskUnits="userSpaceOnUse" x="33" y="30" width="357" height="440">
<path d="M33.3335 30.6406H389.333V469.641H33.3335V30.6406Z" fill="white"/>
</mask>
<g mask="url(#mask0_7_734)">
<mask id="mask1_7_734" style="mask-type:luminance" maskUnits="userSpaceOnUse" x="33" y="30" width="356" height="440">
<path d="M372.037 391.24C370.604 390.948 369.156 390.807 367.698 390.812C366.235 390.823 364.792 390.984 363.365 391.297C361.938 391.609 360.558 392.062 359.229 392.667C357.896 393.266 356.641 394 355.464 394.865C347.396 400.609 338.901 405.646 329.99 409.964C321.073 414.281 311.86 417.823 302.349 420.594C292.839 423.359 283.162 425.318 273.323 426.453C263.485 427.594 253.62 427.901 243.729 427.38L240.912 427.224C232.792 426.677 224.75 425.573 216.781 423.922C120.813 404.042 59.1929 310.104 79.0627 214.161C98.9325 118.214 192.808 56.4792 288.698 76.3594C300.323 78.75 311.594 82.276 322.505 86.9375C333.422 91.599 343.766 97.3021 353.531 104.047H353.615C354.787 105.146 356.073 106.083 357.474 106.865C359.36 107.87 361.344 108.594 363.427 109.042C364.578 109.271 365.745 109.401 366.922 109.438C368.099 109.469 369.266 109.406 370.433 109.245C371.599 109.083 372.74 108.828 373.865 108.474C374.985 108.12 376.068 107.677 377.115 107.146C378.167 106.609 379.162 105.99 380.104 105.292C381.052 104.589 381.927 103.812 382.745 102.964C383.558 102.115 384.297 101.203 384.959 100.234C385.62 99.2604 386.198 98.2396 386.693 97.1719C387.183 96.099 387.584 95 387.891 93.8646C388.198 92.7292 388.406 91.5729 388.521 90.401C388.636 89.2292 388.651 88.0573 388.568 86.8854C388.485 85.7083 388.308 84.5521 388.031 83.4062C387.755 82.2604 387.386 81.151 386.922 80.0677C386.459 78.9844 385.912 77.9479 385.276 76.9583C384.641 75.9687 383.927 75.0365 383.136 74.1667C382.344 73.2969 381.485 72.5 380.563 71.7708H380.479L379.115 70.8073L378.792 70.5625C366.547 61.9427 353.558 54.6615 339.818 48.7083C326.084 42.7552 311.88 38.2656 297.224 35.2292C178.651 10.6771 62.5732 86.9062 37.9534 205.63C13.3388 324.354 89.5992 440.422 208.255 465.052C215.589 466.578 222.985 467.724 230.443 468.495C237.896 469.26 245.37 469.641 252.865 469.641C260.36 469.641 267.834 469.255 275.287 468.484C282.74 467.714 290.136 466.568 297.474 465.036C304.808 463.505 312.047 461.604 319.188 459.333C326.334 457.057 333.339 454.422 340.209 451.432C347.078 448.438 353.776 445.099 360.308 441.417C366.834 437.734 373.156 433.729 379.276 429.396L379.677 429.151L380.563 428.427L380.964 428.188C382.844 426.651 384.417 424.849 385.688 422.776C386.953 420.708 387.849 418.484 388.365 416.115C388.641 414.76 388.787 413.396 388.792 412.016C388.802 410.63 388.677 409.266 388.417 407.906C388.156 406.552 387.766 405.234 387.245 403.953C386.729 402.677 386.089 401.458 385.334 400.302C384.573 399.151 383.714 398.083 382.745 397.099C381.776 396.109 380.724 395.229 379.584 394.453C378.443 393.677 377.235 393.016 375.964 392.479C374.698 391.938 373.386 391.526 372.037 391.24Z" fill="white"/>
</mask>
<g mask="url(#mask1_7_734)">
<path d="M47.646 -40.0521L-54.104 451.589L374.172 540.333L475.922 48.6927L47.646 -40.0521Z" fill="url(#paint0_linear_7_734)"/>
</g>
</g>
<mask id="mask2_7_734" style="mask-type:luminance" maskUnits="userSpaceOnUse" x="146" y="113" width="240" height="269">
<path d="M146.667 113.333H385.333V381.333H146.667V113.333Z" fill="white"/>
</mask>
<g mask="url(#mask2_7_734)">
<mask id="mask3_7_734" style="mask-type:luminance" maskUnits="userSpaceOnUse" x="147" y="114" width="238" height="267">
<path d="M216.135 375.385C227.114 378.453 238.302 380.073 249.698 380.234C261.094 380.401 272.323 379.104 283.385 376.349L288.052 375.063H288.13C290.573 374.359 292.995 373.589 295.396 372.75C297.791 371.906 300.166 370.995 302.51 370.021C304.859 369.042 307.172 367.995 309.458 366.885C311.745 365.776 314 364.599 316.219 363.359C318.437 362.12 320.62 360.813 322.76 359.448C324.906 358.083 327.01 356.656 329.073 355.172C331.135 353.682 333.151 352.141 335.125 350.537C337.099 348.932 339.026 347.276 340.901 345.563C342.781 343.849 344.609 342.083 346.385 340.266C348.161 338.448 349.885 336.578 351.557 334.662C353.224 332.745 354.838 330.781 356.396 328.771C357.953 326.76 359.448 324.703 360.89 322.609C362.328 320.51 363.703 318.375 365.021 316.203C366.338 314.026 367.588 311.813 368.781 309.568C369.969 307.318 371.094 305.042 372.151 302.729C373.208 300.417 374.203 298.073 375.125 295.703C376.052 293.339 376.906 290.943 377.693 288.526C378.479 286.104 379.198 283.667 379.844 281.208C380.489 278.75 381.062 276.271 381.568 273.781C382.073 271.287 382.505 268.781 382.864 266.266C383.229 263.745 383.515 261.219 383.729 258.688C383.948 256.151 384.088 253.615 384.161 251.073C384.229 248.531 384.224 245.99 384.151 243.448C384.073 240.906 383.927 238.365 383.703 235.833C383.484 233.302 383.187 230.776 382.823 228.26C382.453 225.74 382.015 223.24 381.505 220.745C380.995 218.255 380.416 215.781 379.76 213.323C379.109 210.865 378.385 208.427 377.594 206.01C376.802 203.594 375.943 201.203 375.01 198.833C374.083 196.469 373.083 194.13 372.021 191.823C370.958 189.51 369.828 187.234 368.63 184.99C367.437 182.745 366.182 180.537 364.859 178.365C363.536 176.193 362.156 174.057 360.708 171.964C359.265 169.875 357.765 167.823 356.203 165.818C354.64 163.813 353.021 161.849 351.349 159.938C349.672 158.021 347.948 156.162 346.166 154.344C344.385 152.531 342.552 150.771 340.672 149.063C338.786 147.349 336.859 145.698 334.88 144.099C332.901 142.5 330.88 140.964 328.818 139.479C326.75 138 324.646 136.578 322.495 135.214C320.349 133.854 318.166 132.557 315.943 131.323C313.724 130.089 311.469 128.917 309.177 127.813C306.89 126.703 304.568 125.667 302.224 124.693C299.875 123.724 297.5 122.818 295.099 121.984C292.698 121.146 290.276 120.38 287.828 119.682C285.385 118.99 282.922 118.359 280.443 117.807C277.963 117.25 275.469 116.771 272.958 116.359C270.453 115.948 267.932 115.604 265.406 115.339C262.88 115.073 260.344 114.88 257.807 114.755C255.271 114.635 252.729 114.589 250.187 114.615C247.646 114.635 245.104 114.734 242.573 114.906C240.036 115.078 237.505 115.318 234.984 115.635C232.463 115.953 229.953 116.339 227.453 116.802C224.953 117.26 222.469 117.792 220 118.396C217.531 119 215.078 119.672 212.651 120.417C210.219 121.162 207.812 121.974 205.427 122.854C203.041 123.74 200.687 124.688 198.359 125.708C196.031 126.724 193.729 127.807 191.463 128.958C189.198 130.109 186.963 131.323 184.765 132.599C182.568 133.88 180.411 135.219 178.291 136.62C176.172 138.021 174.094 139.484 172.057 141.005C170.021 142.531 168.026 144.109 166.083 145.745C164.135 147.38 162.239 149.073 160.39 150.818C158.541 152.563 156.745 154.359 155 156.208L151.541 160.073C151.083 160.651 150.677 161.266 150.333 161.922C149.666 163.083 149.109 164.297 148.656 165.563C148.208 166.823 147.875 168.115 147.656 169.438C147.432 170.76 147.333 172.094 147.349 173.432C147.37 174.771 147.505 176.099 147.76 177.417C148.015 178.734 148.38 180.016 148.864 181.266C149.349 182.516 149.937 183.714 150.635 184.859C151.333 186.005 152.125 187.078 153.015 188.083C153.906 189.083 154.875 190 155.927 190.833C156.979 191.662 158.094 192.391 159.276 193.021C160.458 193.656 161.687 194.177 162.963 194.583C164.239 194.995 165.541 195.292 166.87 195.469C168.198 195.651 169.531 195.708 170.87 195.651C172.208 195.589 173.531 195.412 174.838 195.12C176.14 194.823 177.411 194.412 178.646 193.891C179.88 193.37 181.057 192.74 182.182 192.01C183.302 191.276 184.354 190.448 185.328 189.531L187.416 187.198C189.219 185.276 191.099 183.443 193.062 181.693C195.031 179.943 197.068 178.281 199.182 176.714C201.297 175.151 203.474 173.677 205.719 172.307C207.963 170.938 210.265 169.667 212.625 168.505C214.984 167.339 217.39 166.281 219.844 165.333C222.297 164.385 224.786 163.547 227.318 162.823C229.844 162.099 232.401 161.49 234.984 160.99C237.568 160.495 240.166 160.12 242.786 159.854C245.401 159.594 248.026 159.448 250.656 159.422C253.286 159.396 255.911 159.49 258.536 159.698C261.156 159.906 263.765 160.234 266.359 160.677C268.953 161.125 271.521 161.682 274.062 162.354C276.604 163.031 279.109 163.818 281.583 164.719C284.057 165.615 286.484 166.625 288.864 167.74C291.245 168.859 293.573 170.083 295.844 171.406C298.114 172.734 300.323 174.162 302.469 175.682C304.614 177.208 306.682 178.828 308.682 180.537C310.682 182.25 312.599 184.047 314.437 185.927C316.276 187.813 318.026 189.771 319.687 191.813C321.349 193.854 322.916 195.964 324.39 198.146C325.864 200.323 327.234 202.568 328.505 204.87C329.776 207.177 330.943 209.531 332.005 211.943C333.062 214.349 334.015 216.802 334.854 219.297C335.693 221.792 336.422 224.318 337.036 226.875C337.646 229.438 338.146 232.016 338.526 234.62C338.911 237.224 339.172 239.844 339.323 242.469C339.469 245.099 339.5 247.724 339.411 250.359C339.323 252.99 339.114 255.609 338.791 258.219C338.469 260.833 338.026 263.427 337.474 265.995C336.916 268.568 336.245 271.115 335.458 273.625C334.677 276.135 333.781 278.609 332.776 281.042C331.771 283.474 330.656 285.854 329.437 288.188C328.219 290.521 326.896 292.792 325.474 295.005C324.047 297.219 322.531 299.365 320.911 301.443C319.297 303.516 317.594 305.516 315.797 307.443C314 309.365 312.125 311.203 310.166 312.958C308.203 314.714 306.166 316.38 304.057 317.948C301.948 319.521 299.776 320.995 297.531 322.375C295.291 323.75 292.989 325.026 290.635 326.193C288.281 327.365 285.875 328.427 283.427 329.38C280.974 330.339 278.484 331.182 275.958 331.912C273.432 332.641 270.875 333.26 268.291 333.76C265.713 334.26 263.114 334.646 260.495 334.917C257.88 335.182 255.255 335.333 252.625 335.365C249.995 335.401 247.37 335.313 244.745 335.109C242.125 334.906 239.515 334.589 236.922 334.151C234.328 333.714 231.76 333.162 229.213 332.49C226.672 331.823 224.161 331.042 221.687 330.151C210.708 326.224 200.922 320.318 192.323 312.443C192.245 312.443 192.245 312.443 192.245 312.359L190.396 310.672C189.385 309.802 188.318 309.021 187.177 308.333C186.031 307.662 184.833 307.094 183.583 306.63C182.333 306.172 181.057 305.823 179.745 305.589C178.432 305.354 177.114 305.24 175.781 305.24C174.453 305.24 173.13 305.359 171.823 305.594C170.51 305.833 169.234 306.182 167.984 306.646C166.739 307.109 165.541 307.682 164.396 308.359C163.25 309.037 162.172 309.807 161.161 310.677C160.156 311.547 159.229 312.495 158.39 313.531C157.552 314.563 156.807 315.662 156.166 316.828C155.521 317.995 154.984 319.203 154.557 320.469C154.13 321.729 153.812 323.016 153.614 324.333C153.416 325.651 153.333 326.974 153.37 328.302C153.406 329.635 153.557 330.953 153.828 332.255C154.099 333.563 154.484 334.833 154.979 336.068C155.474 337.302 156.078 338.484 156.781 339.615C157.489 340.745 158.286 341.802 159.182 342.787C159.943 343.719 160.802 344.552 161.755 345.281H161.838C169.562 352.385 178.015 358.484 187.193 363.573C196.375 368.662 206.021 372.599 216.135 375.385Z" fill="white"/>
</mask>
<g mask="url(#mask3_7_734)">
<path d="M493.828 172.406L198.859 16.7969L37.7344 322.583L332.703 478.193L493.828 172.406Z" fill="url(#paint1_linear_7_734)"/>
</g>
</g>
<mask id="mask4_7_734" style="mask-type:luminance" maskUnits="userSpaceOnUse" x="118" y="208" width="174" height="79">
<path d="M118.667 208H292V286.667H118.667V208Z" fill="white"/>
</mask>
<g mask="url(#mask4_7_734)">
<mask id="mask5_7_734" style="mask-type:luminance" maskUnits="userSpaceOnUse" x="119" y="208" width="173" height="79">
<path d="M291.187 242.01C290.896 239.823 290.422 237.677 289.766 235.573C289.109 233.469 288.281 231.432 287.281 229.464C286.281 227.5 285.125 225.63 283.807 223.859C282.495 222.089 281.042 220.437 279.448 218.917C277.854 217.391 276.146 216.01 274.318 214.771C272.495 213.536 270.578 212.464 268.568 211.547C266.562 210.635 264.495 209.901 262.359 209.333C260.229 208.771 258.068 208.391 255.87 208.193C253.672 208 251.479 207.984 249.281 208.161C247.083 208.333 244.911 208.687 242.776 209.229C240.635 209.771 238.562 210.484 236.542 211.375C234.526 212.266 232.599 213.323 230.76 214.536C228.922 215.755 227.198 217.115 225.589 218.625C223.979 220.13 222.505 221.766 221.172 223.521C219.839 225.276 218.661 227.13 217.641 229.089C216.62 231.042 215.771 233.073 215.089 235.167C207.37 239.516 196.75 242.172 184.922 242.172C174.786 242.172 165.458 240.161 158.135 236.859C156.276 233.661 153.729 231.167 150.495 229.375C148.901 228.443 147.214 227.745 145.427 227.281C144.365 227.042 143.292 226.88 142.208 226.797C140.734 226.656 139.255 226.672 137.781 226.844C136.307 227.021 134.87 227.349 133.469 227.839C132.068 228.323 130.734 228.953 129.464 229.729C128.198 230.505 127.031 231.406 125.958 232.432H125.88L124.349 234.125C123.536 235.031 122.839 236.026 122.26 237.099C121.583 238.286 121.031 239.526 120.604 240.823C120.172 242.12 119.875 243.443 119.703 244.797C119.536 246.151 119.5 247.51 119.599 248.87C119.698 250.234 119.927 251.573 120.292 252.885C120.651 254.203 121.141 255.469 121.75 256.687C122.365 257.906 123.089 259.057 123.927 260.135C124.766 261.208 125.703 262.193 126.734 263.089C127.766 263.979 128.875 264.76 130.062 265.432C131.906 266.479 133.865 267.224 135.937 267.661C138.01 268.104 140.099 268.219 142.208 268.01C143.297 267.901 144.37 267.714 145.427 267.448C148.776 266.604 151.724 265.021 154.276 262.698L156.609 260.203C156.609 260.146 156.635 260.12 156.687 260.12L158.135 257.948C165.458 254.568 174.786 252.557 184.922 252.557C196.75 252.557 207.37 255.214 215.089 259.641C215.479 260.781 215.917 261.901 216.406 263C216.896 264.104 217.437 265.177 218.026 266.229C218.615 267.281 219.255 268.302 219.937 269.297C220.62 270.292 221.349 271.25 222.12 272.172C222.891 273.099 223.703 273.99 224.557 274.839C225.411 275.687 226.302 276.5 227.229 277.271C228.156 278.036 229.12 278.76 230.115 279.443C231.109 280.12 232.13 280.755 233.182 281.339C234.24 281.927 235.312 282.464 236.417 282.948C237.521 283.437 238.641 283.87 239.781 284.255C240.927 284.635 242.083 284.969 243.255 285.245C244.427 285.521 245.609 285.745 246.802 285.911C247.995 286.078 249.198 286.193 250.401 286.25C251.604 286.307 252.807 286.307 254.01 286.255C255.214 286.198 256.411 286.089 257.604 285.927C258.797 285.76 259.984 285.542 261.156 285.271C262.328 285 263.49 284.672 264.63 284.292C265.776 283.911 266.896 283.479 268 282.995C269.104 282.516 270.182 281.979 271.24 281.396C272.292 280.818 273.318 280.187 274.318 279.51C275.312 278.833 276.276 278.109 277.208 277.344C278.135 276.578 279.031 275.771 279.885 274.922C280.74 274.073 281.557 273.187 282.333 272.266C283.104 271.344 283.839 270.385 284.521 269.396C285.208 268.406 285.849 267.385 286.443 266.333C287.036 265.286 287.578 264.208 288.073 263.109C288.562 262.01 289.005 260.891 289.396 259.75C289.786 258.609 290.125 257.453 290.411 256.281C290.693 255.109 290.927 253.932 291.099 252.74C291.276 251.547 291.396 250.349 291.464 249.141C291.526 247.937 291.536 246.734 291.49 245.531C291.448 244.328 291.344 243.125 291.187 241.932V242.01Z" fill="white"/>
</mask>
<g mask="url(#mask5_7_734)">
<path d="M126.573 173.802L103.958 283.088L284.464 320.49L307.078 211.208L126.573 173.802Z" fill="url(#paint2_linear_7_734)"/>
</g>
</g>
<defs>
<linearGradient id="paint0_linear_7_734" x1="127.882" y1="-66.6027" x2="333.214" y2="553.886" gradientUnits="userSpaceOnUse">
<stop stop-color="#0091D4"/>
<stop offset="0.125" stop-color="#0091D4"/>
<stop offset="0.1875" stop-color="#0091D4"/>
<stop offset="0.203125" stop-color="#0092D4"/>
<stop offset="0.21875" stop-color="#0092D4"/>
<stop offset="0.234375" stop-color="#0093D4"/>
<stop offset="0.25" stop-color="#0094D3"/>
<stop offset="0.265625" stop-color="#0094D3"/>
<stop offset="0.28125" stop-color="#0095D3"/>
<stop offset="0.296875" stop-color="#0096D3"/>
<stop offset="0.3125" stop-color="#0096D3"/>
<stop offset="0.328125" stop-color="#0097D3"/>
<stop offset="0.334773" stop-color="#0098D3"/>
<stop offset="0.34375" stop-color="#0098D2"/>
<stop offset="0.359375" stop-color="#0099D2"/>
<stop offset="0.375" stop-color="#0099D2"/>
<stop offset="0.390625" stop-color="#009AD2"/>
<stop offset="0.398437" stop-color="#009BD2"/>
<stop offset="0.40625" stop-color="#009BD2"/>
<stop offset="0.414062" stop-color="#009CD2"/>
<stop offset="0.421875" stop-color="#009CD2"/>
<stop offset="0.429688" stop-color="#009DD1"/>
<stop offset="0.4375" stop-color="#009ED1"/>
<stop offset="0.445312" stop-color="#009ED1"/>
<stop offset="0.453125" stop-color="#009FD1"/>
<stop offset="0.460938" stop-color="#009FD1"/>
<stop offset="0.46875" stop-color="#00A0D1"/>
<stop offset="0.476562" stop-color="#00A1D1"/>
<stop offset="0.484375" stop-color="#00A1D0"/>
<stop offset="0.492187" stop-color="#00A2D0"/>
<stop offset="0.5" stop-color="#00A2D0"/>
<stop offset="0.507812" stop-color="#00A3D0"/>
<stop offset="0.515625" stop-color="#00A4D0"/>
<stop offset="0.523438" stop-color="#00A4D0"/>
<stop offset="0.53125" stop-color="#00A5D0"/>
<stop offset="0.539062" stop-color="#00A5CF"/>
<stop offset="0.546875" stop-color="#00A6CF"/>
<stop offset="0.554688" stop-color="#00A7CF"/>
<stop offset="0.5625" stop-color="#00A7CF"/>
<stop offset="0.570312" stop-color="#00A8CF"/>
<stop offset="0.578125" stop-color="#00A8CF"/>
<stop offset="0.585938" stop-color="#00A9CF"/>
<stop offset="0.59375" stop-color="#00AACE"/>
<stop offset="0.601562" stop-color="#00AACE"/>
<stop offset="0.609375" stop-color="#00ABCE"/>
<stop offset="0.617187" stop-color="#00ABCE"/>
<stop offset="0.625" stop-color="#00ACCE"/>
<stop offset="0.632812" stop-color="#00ACCE"/>
<stop offset="0.640625" stop-color="#00ADCE"/>
<stop offset="0.648438" stop-color="#00AECD"/>
<stop offset="0.65625" stop-color="#00AECD"/>
<stop offset="0.664062" stop-color="#00AFCD"/>
<stop offset="0.665227" stop-color="#00AFCD"/>
<stop offset="0.671875" stop-color="#00B0CD"/>
<stop offset="0.679688" stop-color="#00B0CD"/>
<stop offset="0.6875" stop-color="#00B1CD"/>
<stop offset="0.695312" stop-color="#00B1CD"/>
<stop offset="0.703125" stop-color="#00B2CD"/>
<stop offset="0.710937" stop-color="#00B2CC"/>
<stop offset="0.71875" stop-color="#00B3CC"/>
<stop offset="0.726562" stop-color="#00B4CC"/>
<stop offset="0.734375" stop-color="#00B4CC"/>
<stop offset="0.742188" stop-color="#00B5CC"/>
<stop offset="0.75" stop-color="#00B6CC"/>
<stop offset="0.757812" stop-color="#00B6CB"/>
<stop offset="0.765625" stop-color="#00B7CB"/>
<stop offset="0.773438" stop-color="#00B8CB"/>
<stop offset="0.78125" stop-color="#00B8CB"/>
<stop offset="0.789062" stop-color="#00B9CB"/>
<stop offset="0.796875" stop-color="#00BACA"/>
<stop offset="0.804688" stop-color="#00BACA"/>
<stop offset="0.8125" stop-color="#00BBCA"/>
<stop offset="0.820312" stop-color="#00BCCA"/>
<stop offset="0.828125" stop-color="#00BCCA"/>
<stop offset="0.835937" stop-color="#00BDCA"/>
<stop offset="0.84375" stop-color="#00BEC9"/>
<stop offset="0.851562" stop-color="#00BEC9"/>
<stop offset="0.859375" stop-color="#00BFC9"/>
<stop offset="0.875" stop-color="#00BFC9"/>
<stop offset="1" stop-color="#00BFC9"/>
</linearGradient>
<linearGradient id="paint1_linear_7_734" x1="412.548" y1="340.569" x2="112.136" y2="166.272" gradientUnits="userSpaceOnUse">
<stop stop-color="#00B6F3"/>
<stop offset="0.0405677" stop-color="#00B6F3"/>
<stop offset="0.125" stop-color="#00B6F3"/>
<stop offset="0.15625" stop-color="#00B6F3"/>
<stop offset="0.171875" stop-color="#00B6F3"/>
<stop offset="0.1875" stop-color="#00B6F2"/>
<stop offset="0.203125" stop-color="#00B6F1"/>
<stop offset="0.21875" stop-color="#00B6F1"/>
<stop offset="0.234375" stop-color="#00B6F0"/>
<stop offset="0.25" stop-color="#00B6F0"/>
<stop offset="0.265625" stop-color="#00B6EF"/>
<stop offset="0.28125" stop-color="#00B6EF"/>
<stop offset="0.296875" stop-color="#00B6EE"/>
<stop offset="0.3125" stop-color="#00B5EE"/>
<stop offset="0.328125" stop-color="#00B5ED"/>
<stop offset="0.34375" stop-color="#00B5EC"/>
<stop offset="0.359375" stop-color="#00B5EC"/>
<stop offset="0.375" stop-color="#00B5EB"/>
<stop offset="0.390625" stop-color="#00B5EB"/>
<stop offset="0.40625" stop-color="#00B5EA"/>
<stop offset="0.421875" stop-color="#00B5E9"/>
<stop offset="0.4375" stop-color="#00B5E8"/>
<stop offset="0.453125" stop-color="#00B5E7"/>
<stop offset="0.46875" stop-color="#00B4E6"/>
<stop offset="0.484375" stop-color="#00B4E5"/>
<stop offset="0.5" stop-color="#00B4E4"/>
<stop offset="0.515625" stop-color="#00B4E3"/>
<stop offset="0.53125" stop-color="#00B4E2"/>
<stop offset="0.546875" stop-color="#00B4E1"/>
<stop offset="0.5625" stop-color="#00B4E0"/>
<stop offset="0.578125" stop-color="#00B3DF"/>
<stop offset="0.59375" stop-color="#00B3DE"/>
<stop offset="0.609375" stop-color="#00B3DD"/>
<stop offset="0.625" stop-color="#00B3DC"/>
<stop offset="0.640625" stop-color="#00B3DB"/>
<stop offset="0.65625" stop-color="#00B3DA"/>
<stop offset="0.671875" stop-color="#00B2D9"/>
<stop offset="0.6875" stop-color="#00B2D8"/>
<stop offset="0.703125" stop-color="#00B2D7"/>
<stop offset="0.71875" stop-color="#00B2D6"/>
<stop offset="0.734375" stop-color="#00B2D5"/>
<stop offset="0.75" stop-color="#00B2D4"/>
<stop offset="0.765625" stop-color="#00B2D3"/>
<stop offset="0.78125" stop-color="#00B1D2"/>
<stop offset="0.796875" stop-color="#00B1D1"/>
<stop offset="0.804688" stop-color="#00B1D1"/>
<stop offset="0.8125" stop-color="#00B1D0"/>
<stop offset="0.820313" stop-color="#00B1D0"/>
<stop offset="0.828125" stop-color="#00B1CF"/>
<stop offset="0.835938" stop-color="#00B1CF"/>
<stop offset="0.84375" stop-color="#00B1CE"/>
<stop offset="0.851562" stop-color="#00B1CD"/>
<stop offset="0.859375" stop-color="#00B1CD"/>
<stop offset="0.867188" stop-color="#00B0CC"/>
<stop offset="0.875" stop-color="#00B0CC"/>
<stop offset="0.882813" stop-color="#00B0CB"/>
<stop offset="0.890625" stop-color="#00B0CB"/>
<stop offset="0.898438" stop-color="#00B0CA"/>
<stop offset="0.90625" stop-color="#00B0C9"/>
<stop offset="0.9375" stop-color="#00B0C9"/>
<stop offset="0.959432" stop-color="#00B0C9"/>
<stop offset="1" stop-color="#00B0C9"/>
</linearGradient>
<linearGradient id="paint2_linear_7_734" x1="205.518" y1="173.802" x2="205.518" y2="320.49" gradientUnits="userSpaceOnUse">
<stop stop-color="#009AD2"/>
<stop offset="1" stop-color="#7ED957"/>
</linearGradient>
</defs>
</svg>
