<svg width="32" height="33" viewBox="0 0 32 33" fill="none" xmlns="http://www.w3.org/2000/svg">
<g id="grommet-icons:user-expert" clip-path="url(#clip0_666_1803)">
<path id="Vector" d="M10.6663 15.0409C12.4345 15.0409 14.1301 14.3385 15.3804 13.0882C16.6306 11.838 17.333 10.1423 17.333 8.37419C17.333 6.60608 16.6306 4.91038 15.3804 3.66014C14.1301 2.4099 12.4345 1.70752 10.6663 1.70752C8.89823 1.70752 7.20254 2.4099 5.9523 3.66014C4.70205 4.91038 3.99967 6.60608 3.99967 8.37419C3.99967 10.1423 4.70205 11.838 5.9523 13.0882C7.20254 14.3385 8.89823 15.0409 10.6663 15.0409ZM10.6663 15.0409C13.3503 15.0409 15.6957 16.0542 17.3637 17.7382C18.3526 18.7408 19.0924 19.9616 19.5237 21.3022M10.6663 15.0409C5.33301 15.0409 1.33301 19.0409 1.33301 24.3742V31.0409H14.6663M15.9997 25.4729L21.5863 29.7075L30.6663 17.7075" stroke="#4DB122" stroke-width="2"/>
</g>
<defs>
<clipPath id="clip0_666_1803">
<rect width="32" height="32" fill="white" transform="translate(0 0.374268)"/>
</clipPath>
</defs>
</svg>
