<svg width="20" height="20" viewBox="0 0 20 20" fill="none" xmlns="http://www.w3.org/2000/svg">
<g id="calendar_today">
<mask id="mask0_175_4836" style="mask-type:alpha" maskUnits="userSpaceOnUse" x="0" y="0" width="20" height="20">
<rect id="Bounding box" width="20" height="20" fill="#D9D9D9"/>
</mask>
<g mask="url(#mask0_175_4836)">
<path id="calendar_today_2" d="M4.16667 18.3333C3.70833 18.3333 3.31597 18.1701 2.98958 17.8437C2.66319 17.5174 2.5 17.125 2.5 16.6667V4.99999C2.5 4.54166 2.66319 4.1493 2.98958 3.82291C3.31597 3.49652 3.70833 3.33332 4.16667 3.33332H5V1.66666H6.66667V3.33332H13.3333V1.66666H15V3.33332H15.8333C16.2917 3.33332 16.684 3.49652 17.0104 3.82291C17.3368 4.1493 17.5 4.54166 17.5 4.99999V16.6667C17.5 17.125 17.3368 17.5174 17.0104 17.8437C16.684 18.1701 16.2917 18.3333 15.8333 18.3333H4.16667ZM4.16667 16.6667H15.8333V8.33332H4.16667V16.6667ZM4.16667 6.66666H15.8333V4.99999H4.16667V6.66666Z" fill="#606060"/>
</g>
</g>
</svg>
