<svg width="137" height="149" viewBox="0 0 137 149" fill="none" xmlns="http://www.w3.org/2000/svg">
<g id="Group 4">
<path id="Vector" d="M65.5537 20.2689C63.1439 20.2682 61.0182 21.0907 59.3732 22.4304C58.4329 23.1965 57.0143 22.6913 56.7591 21.5054L53.9029 8.23448C53.4864 6.29943 51.5801 5.06813 49.6449 5.48463L3.42586 15.432C1.53524 15.839 0.332257 17.7015 0.739314 19.5922L10.6756 65.7608C11.0982 67.7239 13.0321 68.9726 14.9951 68.5502L27.8632 65.7806C29.5279 65.4224 30.2038 63.4085 29.0852 62.1246C28.0048 60.8844 27.2273 59.3484 26.8959 57.6082C25.9624 52.7051 28.994 47.8476 33.8116 46.5423C39.1707 45.0904 44.5826 48.4358 45.7358 53.7938C46.1698 55.8097 45.9368 57.8134 45.1857 59.5763C44.6976 60.7218 45.7002 61.9416 46.9177 61.6796L61.0815 58.6313C63.0173 58.2145 64.2488 56.3075 63.8323 54.3715L60.9936 41.1824C60.731 39.9619 61.8443 38.8922 63.0535 39.2029C64.4515 39.5622 65.9523 39.6107 67.4596 39.2863C73.3861 38.0107 76.8504 31.5242 74.0833 25.6628C72.6903 22.712 68.8174 20.27 65.5537 20.2689Z" fill="#4DB122"/>
<path id="Vector_2" d="M109.701 67.8288C110.574 65.5757 110.575 63.2907 109.918 61.2673C109.542 60.1107 110.528 58.9674 111.729 59.1581L125.172 61.293C127.132 61.6043 128.973 60.2675 129.284 58.3076L136.72 11.4909C137.024 9.5758 135.718 7.77681 133.803 7.47277L87.0374 0.0456366C85.049 -0.270069 83.1812 1.08577 82.8653 3.07413L80.7952 16.1087C80.5274 17.7948 82.1656 19.1561 83.7712 18.5752C85.3218 18.0139 87.0398 17.8434 88.7866 18.1637C93.7093 19.0663 97.1532 23.6597 96.6291 28.637C96.046 34.1732 90.9585 38.022 85.5311 37.1602C83.4893 36.8359 81.7 35.8926 80.3237 34.5519C79.4294 33.6808 77.9257 34.1767 77.7298 35.4098L75.4513 49.7567C75.1399 51.7176 76.4772 53.5598 78.438 53.8712L91.7976 55.993C93.0339 56.1893 93.631 57.6173 92.9027 58.6354C92.0605 59.8125 91.4717 61.1981 91.2292 62.7249C90.2758 68.7282 95.0862 74.3159 101.569 73.8513C104.833 73.6169 108.518 70.8797 109.701 67.8288Z" fill="#00B6F3"/>
<g id="Group">
<path id="Vector_3" d="M124.922 71.6075L111.814 73.1396C110.118 73.3378 109.25 75.283 110.244 76.6716C111.203 78.0127 109.868 90.7609 104.034 91.7714C98.5493 92.7215 93.4653 88.8504 92.8273 83.3921C92.5874 81.3387 93.0116 79.3609 93.9302 77.6735C94.5272 76.5768 93.6431 75.2635 92.403 75.4084L77.9745 77.0948C76.0023 77.3253 74.5904 79.1108 74.8209 81.0831C74.8209 81.0831 75.3232 96.7228 74.146 96.2969C72.9333 95.8582 71.6158 95.6585 70.2568 95.7469L70.2572 95.7464L70.2441 95.748C70.082 95.7587 69.9194 95.7726 69.7564 95.7917C69.5925 95.8108 67.2129 96.0479 67.2129 96.0479L69.0896 115.228L71.1546 115.009C73.1088 114.721 74.79 114.338 76.2136 113.39C77.2255 112.715 78.593 113.355 78.7341 114.563L80.3142 128.082C80.5446 130.053 82.3294 131.464 84.3007 131.234L131.384 125.731C133.309 125.506 134.688 123.762 134.463 121.836L128.966 74.805C128.732 72.8054 126.922 71.3738 124.922 71.6075Z" fill="#4DB122"/>
<path id="Vector_4" d="M67.2925 115.211C69.698 115.443 71.898 114.826 73.6681 113.646C74.6803 112.971 76.0477 113.611 76.1889 114.819L77.769 128.338C77.9993 130.309 79.7842 131.721 81.7555 131.49L128.838 125.988C130.764 125.762 132.143 124.019 131.918 122.093L126.421 75.0614C126.187 73.0616 124.377 71.63 122.377 71.8638L109.268 73.3958C107.573 73.5941 106.705 75.5393 107.699 76.9278C108.658 78.269 109.287 79.8768 109.451 81.6453C109.913 86.6284 106.423 91.1864 101.489 92.0278C96.0016 92.9636 90.9201 89.1066 90.2821 83.6485C90.0421 81.595 90.4664 79.6172 91.385 77.9297C91.9819 76.833 91.0979 75.5197 89.8577 75.6647L75.4293 77.351C73.457 77.5815 72.0452 79.3671 72.2757 81.3393L73.846 94.7747C73.9914 96.0182 72.778 96.9791 71.6006 96.5533C70.2397 96.0609 68.7465 95.8687 67.211 96.0482C61.1738 96.7538 57.0949 102.896 59.2956 109.011C60.4038 112.09 64.0355 114.898 67.2925 115.211Z" fill="#4DB122"/>
</g>
<path id="Vector_5" d="M14.0613 84.2425C14.2856 86.642 15.3028 88.6816 16.7906 90.1942C17.6409 91.059 17.2702 92.5184 16.1135 92.8833L3.16735 96.966C1.2795 97.5614 0.231733 99.5744 0.827047 101.462L15.0464 146.551C15.6281 148.395 17.5948 149.419 19.4392 148.837L64.4783 134.633C66.3935 134.029 67.4561 131.987 66.8524 130.072L62.8933 117.519C62.3813 115.895 60.3129 115.41 59.1392 116.643C58.0054 117.835 56.5483 118.752 54.8469 119.245C50.0522 120.632 44.9331 118.067 43.1835 113.392C41.2376 108.193 44.0631 102.492 49.29 100.843C51.2563 100.223 53.2733 100.268 55.0986 100.851C56.2848 101.23 57.4056 100.118 57.0312 98.9302L52.6735 85.1129C52.0781 83.2244 50.0642 82.1765 48.1758 82.7719L35.3093 86.8297C34.1187 87.2051 32.9497 86.1968 33.1462 84.964C33.3733 83.5382 33.2815 82.0396 32.8177 80.5692C30.9943 74.7874 24.2128 71.9441 18.6354 75.2464C15.8272 76.909 13.7575 80.9932 14.0613 84.2425Z" fill="#00B6F3"/>
</g>
</svg>
