<svg width="103" height="149" viewBox="0 0 103 149" fill="none" xmlns="http://www.w3.org/2000/svg">
<path d="M47.8258 3.11757C22.8332 5.37673 3.11136 26.2711 2.26395 51.3515C1.6347 69.9789 11.0999 86.3375 25.5317 95.519C31.0272 99.0156 34.7955 104.67 36.304 111.006L39.7285 125.386L53.9626 125.088L68.1973 124.789L71.0418 110.143C72.2985 103.673 76.0271 97.9602 81.4097 94.1553C94.5686 84.853 103.026 69.3971 102.662 52.0727C102.056 23.1609 77.1306 0.468965 47.8258 3.11757Z" fill="#8CE2FF"/>
<path d="M54.4869 55.8168L54.0915 37.211L45.0326 37.4039C39.8183 37.5145 35.2994 33.3418 35.2862 28.1263C35.2735 23.0683 39.3147 18.9118 44.3931 18.8036L53.696 18.6059L53.3006 9.15527e-05L46.6397 0.141932C21.0082 2.91495 0.902944 24.4879 0.0296907 50.3381C-0.0460353 52.584 0.0248779 54.7963 0.222006 56.9707L17.2772 56.6077L17.4701 65.6666C17.5813 70.8809 21.9422 75.2183 27.1534 75.0097C32.2072 74.8078 36.1889 70.593 36.0807 65.5145L35.883 56.2117L54.4869 55.8168Z" fill="#4DB122"/>
<path d="M49.4532 130.976C49.3973 130.977 49.3408 130.975 49.2843 130.969C48.491 130.894 47.9074 130.19 47.9831 129.396C49.8517 109.671 48.5367 92.2699 45.8718 82.0006C45.5257 81.9838 45.1747 81.9645 44.8213 81.9435C38.7121 81.7626 36.4487 79.2005 35.647 77.6914C34.7335 75.9689 34.8026 73.9724 35.8321 72.3491C36.9247 70.6248 38.9008 69.6638 41.1053 69.763C42.2833 69.8201 43.3999 70.4469 44.424 71.6273C45.7378 73.143 46.9632 75.7249 48.0216 79.1897C51.9017 79.2817 55.084 79.0809 57.6797 78.6951C59.1137 75.2147 61.0014 72.3052 63.0917 70.6585C65.0966 69.0779 66.8023 69.0887 67.8793 69.3675C70.1162 69.9565 71.3909 71.7776 71.0513 73.8991C70.588 76.7977 67.256 79.8478 59.8084 81.2746C58.5409 84.8103 57.7163 88.9692 57.8011 93.0085C57.4345 105.829 58.5499 129.066 58.5614 129.3C58.5998 130.096 57.9856 130.773 57.1887 130.813C56.4074 130.864 55.715 130.237 55.6766 129.439C55.6651 129.206 54.5437 105.855 54.9139 92.9965C54.8352 89.3135 55.4656 85.3614 56.5805 81.7566C54.3027 82.0114 51.722 82.1364 48.8185 82.0925C51.4834 92.9021 52.7154 110.063 50.8577 129.667C50.788 130.406 50.1756 130.96 49.4532 130.976ZM40.6936 72.6448C39.6401 72.667 38.7668 73.1142 38.271 73.8961C37.798 74.6425 37.7716 75.5314 38.1989 76.338C39.0625 77.9643 41.5236 78.9565 44.9511 79.0581C44.9709 79.0593 44.9896 79.0605 45.0088 79.0629C44.1686 76.5459 43.2316 74.6612 42.2424 73.5199C41.7694 72.9753 41.3168 72.6664 40.9689 72.6496C40.8751 72.6442 40.7838 72.643 40.6936 72.6448ZM66.7115 72.1117C66.167 72.1231 65.5534 72.3954 64.8791 72.9273C63.6236 73.9153 62.3326 75.7045 61.2028 77.9793C66.28 76.6246 68.0307 74.5001 68.1996 73.4429C68.3336 72.6051 67.5962 72.2806 67.1442 72.1616C67.0054 72.1255 66.8612 72.1087 66.7115 72.1117Z" fill="#4DB122"/>
<path d="M61.6536 148.698L47.2693 149L43.9668 142.06L64.6622 141.626L61.6536 148.698Z" fill="#7ED957"/>
<path d="M70.2001 123.736L37.6847 124.418C35.8036 124.458 34.3107 126.014 34.3504 127.895L34.4321 131.798C34.4718 133.679 36.0284 135.172 37.9095 135.133L38.1283 135.128C37.1985 136.115 36.6366 137.451 36.6678 138.913C36.7297 141.872 39.1788 144.221 42.1381 144.159L66.5802 143.646C69.5396 143.584 71.8877 141.135 71.8258 138.176C71.7951 136.713 71.1785 135.402 70.2079 134.456L70.426 134.451C72.3072 134.411 73.8 132.855 73.761 130.974L73.6792 127.071C73.6384 125.19 72.0812 123.697 70.2001 123.736Z" fill="#00B6F3"/>
<path d="M70.2004 123.736L54.2871 124.07L54.8358 143.893L66.58 143.646C69.5393 143.584 71.8874 141.135 71.8255 138.176C71.7949 136.713 71.1782 135.402 70.2076 134.456L70.4258 134.452C72.3069 134.412 73.7998 132.855 73.7607 130.974L73.679 127.071C73.6387 125.19 72.0815 123.697 70.2004 123.736Z" fill="#00B6F3"/>
<path d="M76.0135 31.8052H76.0123C67.0995 31.8052 59.873 39.0304 59.873 47.9444C59.873 56.8585 67.0995 64.0843 76.0123 64.0843C78.7811 64.0843 81.3859 63.3865 83.6624 62.1587L76.0135 47.945V31.8052Z" fill="#4DB122"/>
<path d="M93.7774 46.6071C93.7774 37.6937 86.5515 30.4679 77.6387 30.4679V46.6077L77.6645 46.6576L93.7515 47.4876C93.7671 47.1955 93.7774 46.9028 93.7774 46.6071Z" fill="#4DB122"/>
<path d="M77.6641 47.9955L85.2872 62.1587C90.0982 59.5636 93.4397 54.5975 93.7505 48.8249L77.6641 47.9955Z" fill="#4DB122"/>
</svg>
