<svg width="24" height="24" viewBox="0 0 24 24" fill="none" xmlns="http://www.w3.org/2000/svg">
<g id="location_on">
<mask id="mask0_528_1502" style="mask-type:alpha" maskUnits="userSpaceOnUse" x="0" y="0" width="24" height="24">
<rect id="Bounding box" width="24" height="24" fill="#D9D9D9"/>
</mask>
<g mask="url(#mask0_528_1502)">
<path id="location_on_2" d="M12.0009 11.8652C12.4984 11.8652 12.9238 11.6881 13.2769 11.3338C13.6303 10.9794 13.8069 10.5535 13.8069 10.056C13.8069 9.5585 13.6298 9.13308 13.2754 8.77975C12.9211 8.42658 12.4951 8.25 11.9974 8.25C11.4999 8.25 11.0746 8.42717 10.7214 8.7815C10.3681 9.13583 10.1914 9.56183 10.1914 10.0595C10.1914 10.557 10.3686 10.9823 10.7229 11.3355C11.0773 11.6887 11.5033 11.8652 12.0009 11.8652ZM11.9992 19.5135C13.9555 17.7622 15.4526 16.0823 16.4904 14.474C17.5283 12.8657 18.0472 11.457 18.0472 10.248C18.0472 8.425 17.468 6.92633 16.3097 5.752C15.1513 4.57767 13.7145 3.9905 11.9992 3.9905C10.2838 3.9905 8.847 4.57767 7.68867 5.752C6.53034 6.92633 5.95117 8.425 5.95117 10.248C5.95117 11.457 6.47009 12.8657 7.50792 14.474C8.54576 16.0823 10.0428 17.7622 11.9992 19.5135ZM11.9992 21.5095C9.4825 19.3288 7.59534 17.2994 6.33767 15.4212C5.08 13.5429 4.45117 11.8185 4.45117 10.248C4.45117 7.94033 5.19759 6.07208 6.69042 4.64325C8.18342 3.21442 9.953 2.5 11.9992 2.5C14.0453 2.5 15.8149 3.21442 17.3079 4.64325C18.8008 6.07208 19.5472 7.94033 19.5472 10.248C19.5472 11.8185 18.9183 13.5429 17.6607 15.4212C16.403 17.2994 14.5158 19.3288 11.9992 21.5095Z" fill="#111111"/>
</g>
</g>
</svg>
