<svg width="24" height="24" viewBox="0 0 24 24" fill="none" xmlns="http://www.w3.org/2000/svg">
<g id="history_toggle_off">
<mask id="mask0_528_1507" style="mask-type:alpha" maskUnits="userSpaceOnUse" x="0" y="0" width="24" height="24">
<rect id="Bounding box" width="24" height="24" fill="#D9D9D9"/>
</mask>
<g mask="url(#mask0_528_1507)">
<path id="history_toggle_off_2" d="M15.3005 16.3443L11.2505 12.2943V7.25001H12.7505V11.7058L16.3448 15.3L15.3005 16.3443ZM3.3985 16.0463C3.14983 15.5308 2.954 14.9954 2.811 14.4403C2.66817 13.8853 2.57492 13.3218 2.53125 12.75H4.04675C4.09025 13.1897 4.16908 13.623 4.28325 14.05C4.39725 14.477 4.54658 14.8924 4.73125 15.2963L3.3985 16.0463ZM2.53125 11.25C2.57492 10.6782 2.66983 10.1122 2.816 9.55201C2.96217 8.99168 3.16467 8.4506 3.4235 7.92876L4.73125 8.67876C4.54025 9.0826 4.38933 9.4996 4.2785 9.92976C4.1675 10.3599 4.09025 10.8 4.04675 11.25H2.53125ZM6.637 19.8423C6.14867 19.5026 5.69675 19.1241 5.28125 18.7068C4.86592 18.2894 4.48833 17.8365 4.1485 17.348L5.45625 16.5885C5.72158 16.9653 6.0155 17.315 6.338 17.6375C6.6605 17.96 7.01017 18.2539 7.387 18.5193L6.637 19.8423ZM5.48125 7.38651L4.1485 6.63651C4.48833 6.14818 4.86592 5.69784 5.28125 5.28551C5.69675 4.87335 6.14867 4.49743 6.637 4.15776L7.387 5.48076C7.02033 5.7461 6.67742 6.03843 6.35825 6.35776C6.03892 6.67693 5.74658 7.01985 5.48125 7.38651ZM11.2505 21.4693C10.6787 21.4256 10.1127 21.3307 9.5525 21.1845C8.99217 21.0383 8.45108 20.8358 7.92925 20.577L8.67925 19.2693C9.08308 19.4603 9.50008 19.6112 9.93025 19.722C10.3604 19.833 10.8005 19.9103 11.2505 19.9538V21.4693ZM8.67925 4.73076L7.92925 3.42301C8.45108 3.16418 8.99217 2.96168 9.5525 2.81551C10.1127 2.66935 10.6787 2.57443 11.2505 2.53076V4.04626C10.8005 4.08976 10.3604 4.16701 9.93025 4.27801C9.50008 4.38885 9.08308 4.53976 8.67925 4.73076ZM12.7505 21.4693V19.9538C13.2005 19.9103 13.6406 19.833 14.0708 19.722C14.5009 19.6112 14.9179 19.4603 15.3217 19.2693L16.0717 20.577C15.5499 20.8358 15.0088 21.0383 14.4485 21.1845C13.8883 21.3307 13.3223 21.4256 12.7505 21.4693ZM15.3217 4.73076C14.9179 4.53976 14.5009 4.38885 14.0708 4.27801C13.6406 4.16701 13.2005 4.08976 12.7505 4.04626V2.53076C13.3223 2.57443 13.8883 2.66935 14.4485 2.81551C15.0088 2.96168 15.5499 3.16418 16.0717 3.42301L15.3217 4.73076ZM17.364 19.8423L16.614 18.5193C16.9807 18.2539 17.3236 17.9616 17.6428 17.6423C17.9621 17.3231 18.2544 16.9802 18.5198 16.6135L19.8428 17.3635C19.5031 17.8518 19.1272 18.3047 18.715 18.722C18.3027 19.1393 17.8523 19.5128 17.364 19.8423ZM18.5198 7.37701C18.2544 7.01035 17.9621 6.66901 17.6428 6.35301C17.3236 6.03685 16.9807 5.7461 16.614 5.48076L17.364 4.15776C17.8523 4.48726 18.3027 4.85651 18.715 5.26551C19.1272 5.67451 19.498 6.12318 19.8275 6.61151L18.5198 7.37701ZM19.9543 11.25C19.9108 10.8 19.8319 10.3599 19.7178 9.92976C19.6038 9.4996 19.4512 9.07943 19.26 8.66926L20.5775 7.90376C20.8262 8.43593 21.0262 8.9821 21.1775 9.54226C21.3287 10.1026 21.4261 10.6718 21.4698 11.25H19.9543ZM20.5775 16.0713L19.2698 15.3213C19.4608 14.9174 19.6117 14.5004 19.7225 14.0703C19.8335 13.6401 19.9108 13.2 19.9543 12.75H21.4698C21.4261 13.3218 21.3312 13.8878 21.185 14.448C21.0388 15.0083 20.8363 15.5494 20.5775 16.0713Z" fill="#111111"/>
</g>
</g>
</svg>
