<svg width="25" height="25" viewBox="0 0 25 25" fill="none" xmlns="http://www.w3.org/2000/svg">
<g id="game-icons:test-tubes">
<path id="Vector" d="M7.96851 1.38628L3.40335 1.38848C3.43663 1.65318 3.50615 1.98192 3.66984 2.29565C3.95512 2.84245 4.4413 3.33286 5.67079 3.33286C6.8736 3.33286 7.37624 2.84301 7.67751 2.29336C7.8479 1.98257 7.92749 1.65117 7.96846 1.38623L7.96851 1.38628ZM14.7578 1.38628L10.1926 1.38848C10.2259 1.65318 10.2954 1.98192 10.4591 2.29565C10.7444 2.84245 11.2306 3.33286 12.4601 3.33286C13.6629 3.33286 14.1656 2.84301 14.4668 2.29336C14.6372 1.98257 14.7168 1.65131 14.7578 1.38628ZM21.1637 1.38628L16.5986 1.38848C16.6319 1.65318 16.7014 1.98192 16.8651 2.29565C16.9733 2.50312 17.1106 2.70239 17.3062 2.86987L17.3111 2.8739C17.3295 2.88946 17.3484 2.90478 17.3678 2.91984L17.3793 2.92856C17.399 2.94356 17.4192 2.95821 17.4401 2.97253L17.4457 2.97646C17.4689 2.99234 17.4928 3.00778 17.5174 3.02278C17.5202 3.02451 17.5233 3.02606 17.5261 3.02779C17.5472 3.04048 17.5688 3.05282 17.5909 3.06482L17.609 3.07443C17.6304 3.08568 17.6523 3.09662 17.6746 3.10725C17.6793 3.10953 17.6839 3.11176 17.6886 3.11395C17.7162 3.12686 17.7447 3.13925 17.7739 3.15112L17.7784 3.153C17.8058 3.16406 17.8342 3.17456 17.8631 3.18473C17.8695 3.18698 17.8759 3.18917 17.8824 3.19129C17.906 3.19939 17.9302 3.20715 17.9548 3.21459C17.9637 3.21726 17.9724 3.22003 17.9815 3.22265C18.0133 3.23187 18.0459 3.24056 18.0795 3.24871C18.0812 3.24918 18.0832 3.24956 18.085 3.25003C18.1278 3.2602 18.1707 3.26929 18.2139 3.27731C18.2405 3.28225 18.2676 3.28689 18.2951 3.29123C18.305 3.29278 18.3146 3.29442 18.3246 3.29592C18.3624 3.30145 18.4008 3.30656 18.4405 3.31092L18.4505 3.31186C18.4869 3.3157 18.524 3.31901 18.5619 3.32179C18.5748 3.3227 18.5878 3.32354 18.6009 3.32432C18.6298 3.32614 18.6592 3.32765 18.6891 3.32887C18.7041 3.32953 18.719 3.33028 18.7341 3.33065C18.7773 3.33196 18.821 3.33286 18.866 3.33286C18.9534 3.3327 19.0407 3.32985 19.1279 3.32432C19.14 3.32354 19.152 3.32271 19.1639 3.32184C19.204 3.31883 19.244 3.31516 19.2839 3.31082C19.2844 3.31073 19.2847 3.31082 19.2852 3.31073C19.3243 3.30637 19.3621 3.30117 19.3993 3.29559C19.4082 3.29425 19.4171 3.29284 19.4259 3.29137C19.4547 3.28677 19.4834 3.28174 19.5121 3.27628C19.5212 3.27459 19.5304 3.27287 19.5395 3.27112C19.5742 3.26409 19.6085 3.25659 19.6416 3.24843L19.6426 3.2482C19.6765 3.23976 19.7093 3.23086 19.7415 3.22139C19.7484 3.21936 19.7552 3.21728 19.762 3.21515C19.7883 3.20718 19.814 3.19886 19.8391 3.19017C19.8452 3.18806 19.8515 3.18604 19.8576 3.18384C19.9172 3.16277 19.9758 3.13883 20.0331 3.11212C20.037 3.11037 20.0408 3.10856 20.0446 3.10668C20.0681 3.09554 20.0914 3.08386 20.1144 3.07167C20.1189 3.06932 20.1234 3.06695 20.1279 3.06454C20.1788 3.03708 20.2283 3.00709 20.2763 2.97468L20.2844 2.96906C20.3054 2.95462 20.3258 2.93989 20.3458 2.92486C20.3486 2.92265 20.3517 2.9205 20.3546 2.91829C20.5862 2.74111 20.7471 2.52253 20.8726 2.29345C21.043 1.98267 21.1226 1.65136 21.1636 1.38632L21.1637 1.38628ZM7.28404 3.843C7.02449 3.97786 6.7273 4.08262 6.3907 4.14487C6.3854 6.35971 6.37026 9.79987 6.37743 11.694C6.37893 12.0735 6.06023 12.3895 5.64641 12.39C5.23265 12.3905 4.91868 12.0781 4.91976 11.6965V11.6962C4.92398 9.81764 4.93654 6.36759 4.93396 4.14281C4.60096 4.08061 4.30734 3.97743 4.05149 3.84478C4.05276 8.73647 4.0304 17.2051 4.02346 20.6045C4.02135 21.5724 4.7527 22.3267 5.63938 22.3254C6.52612 22.324 7.26576 21.5653 7.26243 20.5996C7.25034 17.0969 7.27415 8.65139 7.28399 3.843H7.28404ZM14.0733 3.843C13.8133 3.97809 13.5156 4.0829 13.1784 4.14511C13.1722 5.87432 13.16 7.49934 13.1667 9.2556C13.1681 9.63511 12.8494 9.95109 12.4355 9.95156C12.0217 9.95203 11.7078 9.63956 11.7089 9.258V9.25781C11.7128 7.50951 11.7232 5.87695 11.7227 4.14281C11.3899 4.08056 11.0963 3.97743 10.8406 3.84482C10.8419 8.73651 10.8195 17.2051 10.8126 20.6045C10.8104 21.5725 11.5419 22.3267 12.4286 22.3255C13.3153 22.3241 14.0549 21.5654 14.0516 20.5997C14.0395 17.0969 14.0633 8.65143 14.0732 3.84304L14.0733 3.843ZM20.4792 3.843C20.2198 3.97781 19.9227 4.08253 19.5863 4.14478C19.5815 6.57056 19.5652 11.9034 19.5726 13.8547C19.5739 14.2342 19.2553 14.5502 18.8415 14.5507C18.4277 14.5512 18.1138 14.2387 18.1148 13.8571V13.857C18.1192 11.9213 18.133 6.59414 18.1293 4.14295C17.7962 4.08079 17.5024 3.97757 17.2465 3.84482C17.2478 8.73656 17.2254 17.2052 17.2185 20.6046C17.2164 21.5725 17.9479 22.3267 18.8345 22.3255C19.7212 22.3241 20.4609 21.5654 20.4576 20.5997C20.4455 17.0969 20.4693 8.65148 20.4791 3.84309L20.4792 3.843ZM1.14941 4.97746V7.40348H3.17334C3.17441 6.56559 3.17559 5.72606 3.17591 4.97751L1.14941 4.97746ZM8.15755 4.97746C8.15587 5.74996 8.15441 6.51468 8.1524 7.40348H9.96252C9.96355 6.56559 9.96477 5.72606 9.9651 4.97751H8.1576L8.15755 4.97746ZM14.9467 4.97746C14.9451 5.74996 14.9436 6.51468 14.9416 7.40348H16.3685C16.3695 6.56559 16.3707 5.72606 16.371 4.97751L14.9467 4.97746ZM21.3527 4.97746C21.351 5.74996 21.3495 6.51468 21.3475 7.40348H23.4022V4.97746H21.3527ZM1.14941 21.1606V23.5866H23.4022V21.1606H21.2747C21.0289 22.3175 20.0323 23.1997 18.8357 23.2015H18.8356C17.6372 23.2031 16.6442 22.3187 16.4005 21.1606H14.8688C14.623 22.3175 13.6263 23.1997 12.4298 23.2015H12.4297C11.2313 23.2031 10.2383 22.3187 9.99454 21.1606H8.0797C7.83379 22.3175 6.83713 23.1997 5.6406 23.2015H5.64051C4.4421 23.2031 3.4491 22.3187 3.20535 21.1606H1.14941Z" fill="#4DB122"/>
</g>
</svg>
