<svg width="24" height="24" viewBox="0 0 24 24" fill="none" xmlns="http://www.w3.org/2000/svg">
<path d="M12 0C13.625 0 15.1786 0.316964 16.6607 0.950893C18.1429 1.58482 19.4196 2.4375 20.4911 3.50893C21.5625 4.58036 22.4152 5.85714 23.0491 7.33929C23.683 8.82143 24 10.375 24 12C24 13.625 23.683 15.1786 23.0491 16.6607C22.4152 18.1429 21.5625 19.4196 20.4911 20.4911C19.4196 21.5625 18.1429 22.4152 16.6607 23.0491C15.1786 23.683 13.625 24 12 24C10.375 24 8.82143 23.683 7.33929 23.0491C5.85714 22.4152 4.58036 21.5625 3.50893 20.4911C2.4375 19.4196 1.58482 18.1429 0.950893 16.6607C0.316964 15.1786 0 13.625 0 12C0 10.375 0.316964 8.82143 0.950893 7.33929C1.58482 5.85714 2.4375 4.58036 3.50893 3.50893C4.58036 2.4375 5.85714 1.58482 7.33929 0.950893C8.82143 0.316964 10.375 0 12 0ZM12 1.71429C10.3036 1.71429 8.69196 2.11607 7.16518 2.91964L9.76339 5.51786C10.4955 5.26786 11.2411 5.14286 12 5.14286C12.7589 5.14286 13.5045 5.26786 14.2366 5.51786L16.8348 2.91964C15.308 2.11607 13.6964 1.71429 12 1.71429ZM2.91964 16.8348L5.51786 14.2366C5.26786 13.5045 5.14286 12.7589 5.14286 12C5.14286 11.2411 5.26786 10.4955 5.51786 9.76339L2.91964 7.16518C2.11607 8.69196 1.71429 10.3036 1.71429 12C1.71429 13.6964 2.11607 15.308 2.91964 16.8348ZM12 22.2857C13.6964 22.2857 15.308 21.8839 16.8348 21.0804L14.2366 18.4821C13.5045 18.7321 12.7589 18.8571 12 18.8571C11.2411 18.8571 10.4955 18.7321 9.76339 18.4821L7.16518 21.0804C8.69196 21.8839 10.3036 22.2857 12 22.2857ZM12 17.1429C13.4196 17.1429 14.6317 16.6406 15.6362 15.6362C16.6406 14.6317 17.1429 13.4196 17.1429 12C17.1429 10.5804 16.6406 9.3683 15.6362 8.36384C14.6317 7.35938 13.4196 6.85714 12 6.85714C10.5804 6.85714 9.3683 7.35938 8.36384 8.36384C7.35938 9.3683 6.85714 10.5804 6.85714 12C6.85714 13.4196 7.35938 14.6317 8.36384 15.6362C9.3683 16.6406 10.5804 17.1429 12 17.1429ZM18.4821 14.2366L21.0804 16.8348C21.8839 15.308 22.2857 13.6964 22.2857 12C22.2857 10.3036 21.8839 8.69196 21.0804 7.16518L18.4821 9.76339C18.7321 10.4955 18.8571 11.2411 18.8571 12C18.8571 12.7589 18.7321 13.5045 18.4821 14.2366Z" fill="#4DB122"/>
</svg>
