<svg width="21" height="20" viewBox="0 0 21 20" fill="none" xmlns="http://www.w3.org/2000/svg">
<g id="bi:ev-front-fill" clip-path="url(#clip0_423_4387)">
<path id="Vector" d="M3.80988 4.39375C4.05101 3.83125 4.452 3.35194 4.96309 3.01528C5.47418 2.67863 6.07288 2.49946 6.68488 2.5H14.6374C15.8874 2.5 17.0174 3.245 17.5099 4.39375L18.4999 6.70375C18.5936 6.9225 18.7624 7.1025 18.9749 7.20875C19.5999 7.52125 20.0436 8.1025 20.1811 8.78625L20.5999 10.885C20.6415 11.0867 20.662 11.2908 20.6611 11.4975V12.0138C20.6611 13.0313 20.1736 13.9425 19.4111 14.51V16.875C19.4111 17.0408 19.3453 17.1997 19.2281 17.3169C19.1109 17.4342 18.9519 17.5 18.7861 17.5H16.2861C16.1204 17.5 15.9614 17.4342 15.8442 17.3169C15.727 17.1997 15.6611 17.0408 15.6611 16.875V15.2025C14.0461 15.2625 12.2299 15.3125 10.6611 15.3125C9.09238 15.3125 7.27613 15.2625 5.66113 15.2025V16.875C5.66113 17.0408 5.59528 17.1997 5.47807 17.3169C5.36086 17.4342 5.20189 17.5 5.03613 17.5H2.53613C2.37037 17.5 2.2114 17.4342 2.09419 17.3169C1.97698 17.1997 1.91113 17.0408 1.91113 16.875V14.51C1.14863 13.9425 0.661133 13.0313 0.661133 12.0138V11.4975C0.661343 11.2918 0.681859 11.0867 0.722383 10.885L1.14113 8.785C1.27863 8.1025 1.72238 7.52 2.34613 7.20875C2.56009 7.10268 2.72902 6.92355 2.82238 6.70375L3.81238 4.39375H3.80988ZM12.2474 5.03125C12.2018 5.00462 12.1484 4.99432 12.0962 5.00205C12.0439 5.00977 11.9958 5.03506 11.9599 5.07375L8.22238 9.0575C8.19128 9.09095 8.17061 9.13274 8.16289 9.17776C8.15516 9.22278 8.16072 9.26907 8.17889 9.31098C8.19706 9.35288 8.22705 9.38859 8.26518 9.41372C8.30332 9.43886 8.34796 9.45233 8.39363 9.4525H9.94488L9.10363 12.1963C9.0884 12.247 9.09058 12.3014 9.10983 12.3508C9.12909 12.4002 9.16431 12.4417 9.20988 12.4688C9.30363 12.5225 9.42238 12.5063 9.49738 12.4263L13.0974 8.4425C13.1285 8.40905 13.1492 8.36726 13.1569 8.32224C13.1646 8.27722 13.159 8.23093 13.1409 8.18902C13.1227 8.14712 13.0927 8.11141 13.0546 8.08628C13.0164 8.06115 12.9718 8.04767 12.9261 8.0475H11.3749L12.3524 5.30375C12.3676 5.25299 12.3654 5.19859 12.3462 5.14921C12.3269 5.09983 12.2917 5.0583 12.2461 5.03125H12.2474Z" fill="#4DB122"/>
</g>
<defs>
<clipPath id="clip0_423_4387">
<rect width="20" height="20" fill="white" transform="translate(0.660156)"/>
</clipPath>
</defs>
</svg>
