<svg width="25" height="24" viewBox="0 0 25 24" fill="none" xmlns="http://www.w3.org/2000/svg">
<g id="carbon:iso-filled">
<path id="Vector" d="M16.0703 9.75H18.3203V14.25H16.0703V9.75Z" fill="#4DB122"/>
<path id="Vector_2" d="M21.3203 4.5H3.32031C2.92249 4.5 2.54096 4.65804 2.25965 4.93934C1.97835 5.22064 1.82031 5.60218 1.82031 6V18C1.82031 18.3978 1.97835 18.7794 2.25965 19.0607C2.54096 19.342 2.92249 19.5 3.32031 19.5H21.3203C21.7181 19.5 22.0997 19.342 22.381 19.0607C22.6623 18.7794 22.8203 18.3978 22.8203 18V6C22.8203 5.60218 22.6623 5.22064 22.381 4.93934C22.0997 4.65804 21.7181 4.5 21.3203 4.5ZM6.32031 15.75H4.82031V8.25H6.32031V15.75ZM13.0703 9.75H9.32031V11.25H11.5703C11.9681 11.25 12.3497 11.408 12.631 11.6893C12.9123 11.9706 13.0703 12.3522 13.0703 12.75V14.25C13.0703 14.6478 12.9123 15.0294 12.631 15.3107C12.3497 15.592 11.9681 15.75 11.5703 15.75H7.82031V14.25H11.5703V12.75H9.32031C8.92249 12.75 8.54096 12.592 8.25965 12.3107C7.97835 12.0294 7.82031 11.6478 7.82031 11.25V9.75C7.82031 9.35218 7.97835 8.97064 8.25965 8.68934C8.54096 8.40804 8.92249 8.25 9.32031 8.25H13.0703V9.75ZM19.8203 14.25C19.8203 14.6478 19.6623 15.0294 19.381 15.3107C19.0997 15.592 18.7181 15.75 18.3203 15.75H16.0703C15.6725 15.75 15.291 15.592 15.0097 15.3107C14.7283 15.0294 14.5703 14.6478 14.5703 14.25V9.75C14.5703 9.35218 14.7283 8.97064 15.0097 8.68934C15.291 8.40804 15.6725 8.25 16.0703 8.25H18.3203C18.7181 8.25 19.0997 8.40804 19.381 8.68934C19.6623 8.97064 19.8203 9.35218 19.8203 9.75V14.25Z" fill="#4DB122"/>
</g>
</svg>
